<?xml version="1.0" standalone="no"?>
<!DOCTYPE svg PUBLIC "-//W3C//DTD SVG 20010904//EN"
 "http://www.w3.org/TR/2001/REC-SVG-20010904/DTD/svg10.dtd">
<svg version="1.0" xmlns="http://www.w3.org/2000/svg"
 width="310" height="163" viewBox="0 0 512.000000 512.000000"
 preserveAspectRatio="xMidYMid meet">
<metadata>
Created by potrace 1.16, written by Peter Selinger 2001-2019
</metadata>
<g transform="translate(0.000000,512.000000) scale(0.100000,-0.100000)"
fill="#000000" stroke="none">
<path d="M1242 5105 c-30 -7 -92 -32 -140 -55 -123 -61 -214 -154 -275 -281
-25 -52 -50 -118 -56 -147 -6 -30 -11 -168 -11 -321 l0 -268 26 -27 c37 -37
110 -37 146 -1 l26 25 4 263 c5 231 8 269 26 318 49 137 141 229 281 282 l56
22 1353 3 1353 3 -41 -59 c-48 -71 -74 -128 -95 -207 -23 -89 -22 -884 1 -920
22 -34 75 -50 118 -35 66 21 66 24 66 380 l0 320 494 0 493 0 27 26 c23 24 26
34 26 98 0 265 -199 514 -465 581 -52 13 -269 15 -1710 14 -1310 -1 -1661 -3
-1703 -14z m3441 -238 c101 -50 179 -140 211 -244 l7 -23 -401 0 -401 0 7 23
c26 86 100 182 172 224 86 51 138 64 238 60 82 -3 99 -7 167 -40z"/>
<path d="M2669 4551 c-23 -23 -29 -38 -29 -71 0 -33 6 -48 29 -71 l29 -29 224
0 223 0 -562 -562 -563 -563 -343 343 -343 342 -54 0 -54 0 -444 -442 c-244
-244 -457 -461 -473 -482 -20 -27 -29 -51 -29 -77 0 -78 94 -127 160 -83 14 9
208 199 432 423 l408 406 327 -326 c181 -180 339 -334 353 -343 31 -21 79 -21
110 0 14 9 289 280 612 602 l586 585 4 -196 c3 -180 5 -198 24 -224 39 -52
114 -55 160 -6 l24 26 0 359 0 360 -29 29 -29 29 -362 0 -362 0 -29 -29z"/>
<path d="M3867 3472 l-27 -28 0 -586 0 -585 25 -25 c14 -14 42 -28 63 -32 48
-8 1056 -8 1104 0 21 4 49 18 63 32 23 23 25 32 25 114 0 343 -197 714 -490
920 -195 137 -434 218 -647 218 -85 0 -91 -1 -116 -28z m342 -219 c260 -74
477 -254 599 -499 41 -80 83 -210 96 -291 l6 -43 -435 0 -435 0 0 435 0 435
43 -6 c23 -4 80 -18 126 -31z"/>
<path d="M787 2952 l-27 -28 0 -1092 0 -1092 -244 0 -243 0 -27 -26 c-23 -24
-26 -35 -26 -95 0 -98 16 -162 67 -268 63 -131 153 -221 284 -284 52 -25 118
-50 147 -56 37 -8 484 -11 1445 -11 1545 0 1442 -4 1587 67 103 52 211 160
263 263 63 128 67 157 67 502 l0 307 63 43 c118 80 253 232 316 356 61 121
101 280 101 406 0 77 -2 85 -26 110 l-27 26 -403 0 -404 0 0 404 0 403 -26 27
c-24 24 -34 26 -103 26 -443 -1 -849 -349 -921 -793 -13 -81 -13 -255 1 -337
61 -379 370 -695 757 -775 99 -21 285 -21 382 -1 41 9 78 16 83 16 10 0 8
-390 -2 -472 -19 -143 -111 -271 -240 -332 -61 -29 -74 -31 -171 -31 -97 0
-110 2 -171 31 -138 66 -223 191 -242 355 -8 74 -14 93 -35 114 l-25 25 -1013
0 -1014 0 0 1093 0 1093 -28 27 c-40 39 -107 38 -145 -1z m2738 -1044 c14 -14
42 -28 63 -32 20 -3 200 -6 399 -6 l361 0 -14 -62 c-51 -218 -202 -403 -413
-508 -200 -99 -457 -95 -660 10 -155 81 -260 188 -337 346 -54 111 -74 198
-74 330 0 326 214 614 530 713 36 11 76 21 90 23 l25 3 3 -396 2 -396 25 -25z
m-671 -1435 c19 -76 73 -190 113 -237 l26 -31 -129 -3 c-71 -1 -568 -1 -1104
0 l-975 3 -67 26 c-123 48 -224 148 -263 258 -8 24 -15 45 -15 47 0 2 539 4
1199 4 l1199 0 16 -67z"/>
<path d="M26 2734 c-21 -21 -26 -36 -26 -74 0 -66 34 -100 100 -100 66 0 100
34 100 100 0 66 -34 100 -100 100 -38 0 -53 -5 -74 -26z"/>
<path d="M1176 2334 c-37 -38 -37 -110 0 -148 l27 -26 216 0 c241 0 250 2 271
65 9 26 9 44 0 70 -21 63 -30 65 -271 65 l-216 0 -27 -26z"/>
<path d="M1176 1854 c-37 -38 -37 -110 0 -148 l27 -26 477 0 477 0 27 26 c37
38 37 110 0 148 l-27 26 -477 0 -477 0 -27 -26z"/>
<path d="M1176 1374 c-37 -38 -37 -110 0 -148 l27 -26 477 0 477 0 27 26 c37
38 37 110 0 148 l-27 26 -477 0 -477 0 -27 -26z"/>
<path d="M2435 1376 c-28 -29 -40 -66 -31 -102 25 -100 177 -100 202 0 9 36
-3 73 -31 102 -18 18 -35 24 -70 24 -35 0 -52 -6 -70 -24z"/>
</g>
</svg>
