<?xml version="1.0" standalone="yes"?>
<svg xmlns="http://www.w3.org/2000/svg" width="96" height="96">
<path style="fill:#ffffff; stroke:none;" d="M0 0L0 96L96 96L96 0L0 0z"/>
<path style="fill:#a5a5a5; stroke:none;" d="M40.6667 14.3333L41.3333 14.6667L40.6667 14.3333z"/>
<path style="fill:#6c6c6c; stroke:none;" d="M42 14L43 15L42 14z"/>
<path style="fill:#4a4a4a; stroke:none;" d="M43 14L43 15L46 15L43 14z"/>
<path style="fill:#020202; stroke:none;" d="M20 69C20.0004 72.2012 19.2626 76.7819 21.179 79.5664C27.5769 88.8621 33.9901 76.9132 34 71C34.0076 66.4544 35.5196 58.3541 32.821 54.4336C25.4355 43.704 20.0006 59.4763 20 65L16 65C16 53.5992 15.1248 42.5796 22.5293 33.0008C36.9942 14.2882 65.8217 16.6044 76.6227 38C80.9184 46.5094 80 55.7671 80 65L76 65C75.9994 59.2759 70.8316 43.8037 63.179 54.5139C60.456 58.325 61.9925 66.537 62 71C62.0099 76.9132 68.4231 88.8621 74.821 79.5664C76.7374 76.782 75.9996 72.2012 76 69C78.0922 69.609 81.5818 72.4725 83.7215 71.659C86.43 70.629 85.9837 66.2565 85.9992 64C86.0504 56.5619 86.2836 49.2316 84.2539 42C79.8111 26.171 65.6062 14.728 49 14.2593C32.3094 13.7881 16.7891 25.0974 12.0424 41C9.80361 48.5007 9.94749 56.2594 10.0008 64C10.0163 66.2565 9.56998 70.629 12.2785 71.659C14.4182 72.4725 17.9078 69.609 20 69z"/>
<path style="fill:#4a4a4a; stroke:none;" d="M51.6667 14.3333L52.3333 14.6667L51.6667 14.3333z"/>
<path style="fill:#6c6c6c; stroke:none;" d="M53 14L54 15L53 14z"/>
<path style="fill:#a5a5a5; stroke:none;" d="M54.6667 14.3333L55.3333 14.6667L54.6667 14.3333M37 15L38 16L37 15z"/>
<path style="fill:#6c6c6c; stroke:none;" d="M38 15L39 16L38 15M57 15L58 16L57 15z"/>
<path style="fill:#a5a5a5; stroke:none;" d="M58 15L59 16L58 15M34 16L35 17L34 16z"/>
<path style="fill:#4a4a4a; stroke:none;" d="M35 16L36 17L35 16M60 16L61 17L60 16z"/>
<path style="fill:#a5a5a5; stroke:none;" d="M61 16L62 17L61 16z"/>
<path style="fill:#6c6c6c; stroke:none;" d="M32 17L33 18L32 17M63 17L64 18L63 17M30 18L31 19L30 18M65 18L66 19L65 18z"/>
<path style="fill:#a5a5a5; stroke:none;" d="M28 19L29 20L28 19M67 19L68 20L67 19M26 20L27 21L26 20z"/>
<path style="fill:#4a4a4a; stroke:none;" d="M27 20L28 21L27 20M41 20L42 21L41 20z"/>
<path style="fill:#6c6c6c; stroke:none;" d="M42.6667 20.3333L43.3333 20.6667L42.6667 20.3333z"/>
<path style="fill:#a5a5a5; stroke:none;" d="M44 20L44 21L47 21L44 20M49 20L49 21L52 21L49 20z"/>
<path style="fill:#6c6c6c; stroke:none;" d="M52.6667 20.3333L53.3333 20.6667L52.6667 20.3333z"/>
<path style="fill:#4a4a4a; stroke:none;" d="M54 20L55 21L54 20z"/>
<path style="fill:#a5a5a5; stroke:none;" d="M69 20L70 21L69 20M25 21L26 22L25 21z"/>
<path style="fill:#4a4a4a; stroke:none;" d="M38 21L39 22L38 21z"/>
<path style="fill:#a5a5a5; stroke:none;" d="M39 21L40 22L39 21M56 21L57 22L56 21z"/>
<path style="fill:#6c6c6c; stroke:none;" d="M57 21L58 22L57 21z"/>
<path style="fill:#a5a5a5; stroke:none;" d="M70 21L71 22L70 21z"/>
<path style="fill:#6c6c6c; stroke:none;" d="M24 22L25 23L24 22z"/>
<path style="fill:#4a4a4a; stroke:none;" d="M35 22L36 23L35 22z"/>
<path style="fill:#a5a5a5; stroke:none;" d="M36 22L37 23L36 22M59 22L60 23L59 22z"/>
<path style="fill:#6c6c6c; stroke:none;" d="M60 22L61 23L60 22z"/>
<path style="fill:#4a4a4a; stroke:none;" d="M71 22L72 23L71 22M23 23L24 24L23 23M33 23L34 24L33 23z"/>
<path style="fill:#a5a5a5; stroke:none;" d="M34 23L35 24L34 23M61 23L62 24L61 23z"/>
<path style="fill:#6c6c6c; stroke:none;" d="M62 23L63 24L62 23z"/>
<path style="fill:#4a4a4a; stroke:none;" d="M72 23L73 24L72 23z"/>
<path style="fill:#a5a5a5; stroke:none;" d="M21 24L22 25L21 24z"/>
<path style="fill:#4a4a4a; stroke:none;" d="M31 24L32 25L31 24z"/>
<path style="fill:#a5a5a5; stroke:none;" d="M32 24L33 25L32 24M63 24L64 25L63 24z"/>
<path style="fill:#4a4a4a; stroke:none;" d="M64 24L65 25L64 24z"/>
<path style="fill:#a5a5a5; stroke:none;" d="M74 24L75 25L74 24M20 25L21 26L20 25M30 25L31 26L30 25M65 25L66 26L65 25M75 25L76 26L75 25z"/>
<path style="fill:#4a4a4a; stroke:none;" d="M28 26L29 27L28 26M67 26L68 27L67 26M19 27L20 28L19 27M27 27L28 28L27 27M68 27L69 28L68 27M76 27L77 28L76 27z"/>
<path style="fill:#6c6c6c; stroke:none;" d="M18 28L19 29L18 28M26 28L27 29L26 28M69 28L70 29L69 28z"/>
<path style="fill:#4a4a4a; stroke:none;" d="M77 28L78 29L77 28z"/>
<path style="fill:#a5a5a5; stroke:none;" d="M17 29L18 30L17 29M25 29L26 30L25 29M70 29L71 30L70 29M78 29L79 30L78 29M16 30L17 31L16 30z"/>
<path style="fill:#6c6c6c; stroke:none;" d="M24 30L25 31L24 30M71 30L72 31L71 30z"/>
<path style="fill:#a5a5a5; stroke:none;" d="M79 30L80 31L79 30z"/>
<path style="fill:#4a4a4a; stroke:none;" d="M16 31L17 32L16 31z"/>
<path style="fill:#6c6c6c; stroke:none;" d="M23 31L24 32L23 31z"/>
<path style="fill:#4a4a4a; stroke:none;" d="M72 31L73 32L72 31z"/>
<path style="fill:#a5a5a5; stroke:none;" d="M15 32L16 33L15 32z"/>
<path style="fill:#4a4a4a; stroke:none;" d="M22 32L23 33L22 32M73 32L74 33L73 32z"/>
<path style="fill:#6c6c6c; stroke:none;" d="M80 32L81 33L80 32z"/>
<path style="fill:#a5a5a5; stroke:none;" d="M22 33L23 34L22 33z"/>
<path style="fill:#6c6c6c; stroke:none;" d="M14 34L15 35L14 34z"/>
<path style="fill:#a5a5a5; stroke:none;" d="M21 34L22 35L21 34M74 34L75 35L74 34z"/>
<path style="fill:#6c6c6c; stroke:none;" d="M81 34L82 35L81 34z"/>
<path style="fill:#4a4a4a; stroke:none;" d="M20 35L21 36L20 35M75 35L76 36L75 35z"/>
<path style="fill:#6c6c6c; stroke:none;" d="M13 36L14 37L13 36z"/>
<path style="fill:#a5a5a5; stroke:none;" d="M20 36L21 37L20 36z"/>
<path style="fill:#6c6c6c; stroke:none;" d="M82 36L83 37L82 36z"/>
<path style="fill:#4a4a4a; stroke:none;" d="M19 37L20 38L19 37z"/>
<path style="fill:#6c6c6c; stroke:none;" d="M76 37L77 38L76 37z"/>
<path style="fill:#a5a5a5; stroke:none;" d="M12 38L13 39L12 38M19 38L20 39L19 38M83 38L84 39L83 38z"/>
<path style="fill:#4a4a4a; stroke:none;" d="M12 39L13 40L12 39z"/>
<path style="fill:#6c6c6c; stroke:none;" d="M18 39L19 40L18 39M77 39L78 40L77 39z"/>
<path style="fill:#4a4a4a; stroke:none;" d="M83 39L84 40L83 39z"/>
<path style="fill:#a5a5a5; stroke:none;" d="M18 40L19 41L18 40M77 40L78 41L77 40M11 41L12 42L11 41M84 41L85 42L84 41z"/>
<path style="fill:#4a4a4a; stroke:none;" d="M11 42L12 43L11 42M17 42L18 43L17 42z"/>
<path style="fill:#6c6c6c; stroke:none;" d="M78 42L79 43L78 42z"/>
<path style="fill:#4a4a4a; stroke:none;" d="M84 42L85 43L84 42z"/>
<path style="fill:#a5a5a5; stroke:none;" d="M17 43L18 44L17 43M78 43L79 44L78 43M10 44L10 47L11 47L10 44M85.3333 44.6667L85.6667 45.3333L85.3333 44.6667z"/>
<path style="fill:#4a4a4a; stroke:none;" d="M16 45L17 46L16 45M79 45L80 46L79 45z"/>
<path style="fill:#6c6c6c; stroke:none;" d="M16.3333 46.6667L16.6667 47.3333L16.3333 46.6667M79.3333 46.6667L79.6667 47.3333L79.3333 46.6667M85 46L86 47L85 46z"/>
<path style="fill:#4a4a4a; stroke:none;" d="M10.3333 47.6667L10.6667 48.3333L10.3333 47.6667M85 47L86 48L85 47z"/>
<path style="fill:#a5a5a5; stroke:none;" d="M16 48L16 51L17 51L16 48M79.3333 48.6667L79.6667 49.3333L79.3333 48.6667z"/>
<path style="fill:#6c6c6c; stroke:none;" d="M22 52L23 53L22 52z"/>
<path style="fill:#4a4a4a; stroke:none;" d="M23 52L24 53L23 52z"/>
<path style="fill:#6c6c6c; stroke:none;" d="M31 52L32 53L31 52M64 52L65 53L64 52z"/>
<path style="fill:#4a4a4a; stroke:none;" d="M65 52L66 53L65 52z"/>
<path style="fill:#6c6c6c; stroke:none;" d="M73 52L74 53L73 52M20 54L21 55L20 54M33 54L34 55L33 54M62 54L63 55L62 54M75 54L76 55L75 54M10 71L11 72L10 71M15 71L16 72L15 71M80 71L81 72L80 71M85 71L86 72L85 71M11 72L12 73L11 72M14 72L15 73L14 72M81 72L82 73L81 72M84 72L85 73L84 72M20 79L21 80L20 79z"/>
<path style="fill:#4a4a4a; stroke:none;" d="M33 79L34 80L33 79z"/>
<path style="fill:#6c6c6c; stroke:none;" d="M62 79L63 80L62 79z"/>
<path style="fill:#4a4a4a; stroke:none;" d="M75 79L76 80L75 79z"/>
<path style="fill:#a5a5a5; stroke:none;" d="M33 80L34 81L33 80M75 80L76 81L75 80z"/>
<path style="fill:#6c6c6c; stroke:none;" d="M22 81L23 82L22 81z"/>
<path style="fill:#4a4a4a; stroke:none;" d="M31 81L32 82L31 81z"/>
<path style="fill:#6c6c6c; stroke:none;" d="M64 81L65 82L64 81z"/>
<path style="fill:#4a4a4a; stroke:none;" d="M73 81L74 82L73 81z"/>
</svg>
