<?xml version="1.0" standalone="no"?>
<!DOCTYPE svg PUBLIC "-//W3C//DTD SVG 20010904//EN"
 "http://www.w3.org/TR/2001/REC-SVG-20010904/DTD/svg10.dtd">
<svg version="1.0" xmlns="http://www.w3.org/2000/svg"
 width="312.000000pt" height="163.000000pt" viewBox="0 0 512.000000 512.000000"
 preserveAspectRatio="xMidYMid meet">
<metadata>
Created by potrace 1.16, written by Peter Selinger 2001-2019
</metadata>
<g transform="translate(0.000000,512.000000) scale(0.100000,-0.100000)"
fill="#000000" stroke="none">
<path d="M1540 4860 c-20 -20 -20 -33 -20 -1240 l0 -1220 -620 0 c-607 0 -620
0 -640 -20 -20 -20 -20 -33 -20 -1060 0 -1027 0 -1040 20 -1060 20 -20 33 -20
1180 -20 1147 0 1160 0 1180 20 18 18 20 33 20 160 l0 140 1100 0 c1087 0
1100 0 1120 20 20 20 20 33 20 1844 l0 1824 -207 193 c-115 107 -267 249 -340
316 l-132 123 -1320 0 c-1308 0 -1321 0 -1341 -20z m2540 -435 l0 -296 25 -24
24 -25 296 0 295 0 0 -1680 0 -1680 -1040 0 -1040 0 0 815 0 816 -25 24 -24
25 -456 0 -455 0 0 1160 0 1160 1200 0 1200 0 0 -295z m375 -10 c83 -76 159
-146 170 -157 19 -18 14 -18 -183 -18 l-202 0 0 187 0 187 33 -30 c17 -17 100
-93 182 -169z m-1975 -3095 l0 -920 -1040 0 -1040 0 0 920 0 920 1040 0 1040
0 0 -920z"/>
<path d="M2950 4535 l-25 -27 0 -449 0 -448 23 -23 23 -23 448 0 449 0 27 25
c27 25 27 26 22 120 -16 268 -168 536 -391 689 -128 88 -303 148 -456 158 -94
5 -95 5 -120 -22z m299 -181 c235 -79 413 -269 480 -514 34 -123 70 -110 -309
-110 l-330 0 0 331 0 332 42 -7 c23 -4 76 -18 117 -32z"/>
<path d="M2607 4300 c-348 -59 -628 -309 -734 -657 -24 -80 -26 -103 -27 -248
0 -147 2 -167 28 -249 95 -312 320 -537 632 -632 81 -25 103 -28 249 -28 145
0 168 3 248 27 382 117 640 437 664 822 5 88 5 91 -22 115 l-27 25 -388 3
-389 3 -3 389 -3 388 -24 26 c-22 23 -32 26 -90 25 -36 -1 -88 -5 -114 -9z
m65 -550 l3 -389 23 -23 23 -23 390 -3 391 -3 -7 -47 c-10 -68 -58 -193 -101
-265 -21 -34 -70 -94 -109 -133 -243 -243 -619 -290 -915 -115 -194 115 -319
303 -357 532 -20 120 -10 238 31 358 67 199 234 375 426 451 66 26 147 48 177
49 l22 1 3 -390z"/>
<path d="M3145 2295 c-16 -15 -25 -36 -25 -55 0 -19 9 -40 25 -55 l24 -25 671
0 671 0 24 25 c33 32 33 78 0 110 l-24 25 -671 0 -671 0 -24 -25z"/>
<path d="M3145 1975 c-16 -15 -25 -36 -25 -55 0 -19 9 -40 25 -55 l24 -25 671
0 671 0 24 25 c33 32 33 78 0 110 l-24 25 -671 0 -671 0 -24 -25z"/>
<path d="M3145 1655 c-16 -15 -25 -36 -25 -55 0 -19 9 -40 25 -55 l24 -25 671
0 671 0 24 25 c33 32 33 78 0 110 l-24 25 -671 0 -671 0 -24 -25z"/>
<path d="M3145 1335 c-16 -15 -25 -36 -25 -55 0 -19 9 -40 25 -55 l24 -25 671
0 671 0 24 25 c33 32 33 78 0 110 l-24 25 -671 0 -671 0 -24 -25z"/>
<path d="M3145 1015 c-16 -15 -25 -36 -25 -55 0 -19 9 -40 25 -55 l24 -25 671
0 671 0 24 25 c33 32 33 78 0 110 l-24 25 -671 0 -671 0 -24 -25z"/>
<path d="M1772 1977 l-22 -23 0 -666 c0 -367 3 -674 6 -683 15 -39 54 -45 283
-45 218 0 220 0 248 24 l28 24 3 654 c1 359 0 663 -3 676 -3 12 -14 31 -25 42
-19 19 -34 20 -258 20 -236 0 -239 0 -260 -23z"/>
<path d="M1185 1729 c-46 -26 -45 -15 -45 -580 0 -513 1 -538 19 -560 19 -24
21 -24 254 -27 l235 -3 28 25 29 24 0 541 0 540 -23 23 c-22 22 -28 23 -250
25 -154 2 -233 -1 -247 -8z m355 -579 l0 -420 -120 0 -120 0 0 420 0 420 120
0 120 0 0 -420z"/>
<path d="M556 1399 l-26 -20 0 -384 c0 -362 1 -384 19 -406 19 -24 21 -24 254
-27 l235 -3 28 25 29 24 0 382 0 382 -28 24 c-28 24 -30 24 -256 24 -216 0
-230 -1 -255 -21z m374 -404 l0 -265 -120 0 -120 0 0 265 0 265 120 0 120 0 0
-265z"/>
</g>
</svg>
