<?xml version="1.0" standalone="yes"?>
<svg xmlns="http://www.w3.org/2000/svg" width="48" height="48">
<path style="fill:#121111; stroke:none;" d="M0 0L0 48L48 48L48 0L19 0L21 5L18 5L19 8C25.6473 6.43576 37.9786 8.55573 36.8557 18C36.1752 23.7235 31.0629 25.8006 33 32C55.0421 27.9711 41.2612 58.3647 30 39L29 39L30 42L22 43L28 41L28 40L23 41C22.6252 35.4055 19.8657 29.952 15 27L12 30L14 24L9 27L8 20L9 20L9 23L18 12L12 9L14 9L13 6L9 8L13 1L0 0z"/>
<path style="fill:#d0cecc; stroke:none;" d="M9 6C13.571 5.76537 17.3572 4.92539 20 1C14.8289 -0.481697 10.6278 0.518112 9 6z"/>
<path style="fill:#9fa1a3; stroke:none;" d="M15 3L18 1L15 3M13 2L12 4L14 4L13 2z"/>
<path style="fill:#121111; stroke:none;" d="M14 2L15 3L14 2z"/>
<path style="fill:#9fa1a3; stroke:none;" d="M19 2L19 4L21 4L21 2L19 2M16 4L16 5L19 5L16 4z"/>
<path style="fill:#c33e31; stroke:none;" d="M20 4L21 5L20 4z"/>
<path style="fill:#9fa1a3; stroke:none;" d="M14.3333 5.66667L14.6667 6.33333L14.3333 5.66667z"/>
<path style="fill:#121111; stroke:none;" d="M15 5L17 7L15 5z"/>
<path style="fill:#c33e31; stroke:none;" d="M16 5L16 6L18 8L15 6L19 10L16 5z"/>
<path style="fill:#9fa1a3; stroke:none;" d="M9 6L9 7L12 7L9 6z"/>
<path style="fill:#c33e31; stroke:none;" d="M13 6L14 7L13 6z"/>
<path style="fill:#e5b42e; stroke:none;" d="M17.3333 6.66667L17.6667 7.33333L17.3333 6.66667z"/>
<path style="fill:#c33e31; stroke:none;" d="M9 7L9 8L12 8L9 7z"/>
<path style="fill:#e5b42e; stroke:none;" d="M14 7C9.84724 15.3055 16.5993 11.3998 19 12L14 7z"/>
<path style="fill:#c33e31; stroke:none;" d="M20 7L21 8L20 7z"/>
<path style="fill:#9fa1a3; stroke:none;" d="M19 8L20 16L25 15L26 17L26 18L24 18C27.6376 27.0393 37.5633 21.3187 33.3526 15.2276C31.3218 12.2899 27.2256 11.6768 24 11L24 10L28 10C25.5448 6.59874 22.8454 7.09547 19 8z"/>
<path style="fill:#d0cecc; stroke:none;" d="M27 7L28 10L24 10L24 11C32.9781 13.629 35.1609 17.0127 30 25C40.184 19.9758 35.6923 9.97409 27 7z"/>
<path style="fill:#9fa1a3; stroke:none;" d="M12 9L13 10L12 9z"/>
<path style="fill:#d0cecc; stroke:none;" d="M19.3333 9.66667L19.6667 10.3333L19.3333 9.66667z"/>
<path style="fill:#9fa1a3; stroke:none;" d="M17 11L18 12L17 11z"/>
<path style="fill:#d0cecc; stroke:none;" d="M18 12L20 15L18 12z"/>
<path style="fill:#9fa1a3; stroke:none;" d="M35 13L32 26C35.8574 22.9514 39.8066 16.9448 35 13z"/>
<path style="fill:#e5b42e; stroke:none;" d="M17 14L12 24L19 21L26 27L25 38C30.2997 36.1834 30.1921 29.7166 32 25C27.5806 23.8179 25.0147 21.7954 25 17L22 18L17 14z"/>
<path style="fill:#d0cecc; stroke:none;" d="M21 15L22 16L21 15z"/>
<path style="fill:#121111; stroke:none;" d="M22 18L25 15L22 18z"/>
<path style="fill:#d0cecc; stroke:none;" d="M26.6667 16.3333L27.3333 16.6667L26.6667 16.3333M37 16L38 17L37 16M25 17L26 18L25 17z"/>
<path style="fill:#9fa1a3; stroke:none;" d="M8 20L9 21L8 20z"/>
<path style="fill:#c33e31; stroke:none;" d="M12 20L13 21L12 20M8 21L9 22L8 21M11 21L12 22L11 21z"/>
<path style="fill:#121111; stroke:none;" d="M17 22L20 24L19 21L17 22z"/>
<path style="fill:#9fa1a3; stroke:none;" d="M8.33333 22.6667L8.66667 23.3333L8.33333 22.6667z"/>
<path style="fill:#d0cecc; stroke:none;" d="M8 26L12 22L8 26z"/>
<path style="fill:#c33e31; stroke:none;" d="M14 29L17 27L25 38L25 32L22 33L20 27L26 28C21.6303 24.2034 13.2376 19.619 14 29z"/>
<path style="fill:#121111; stroke:none;" d="M26 23L27 24L26 23z"/>
<path style="fill:#9fa1a3; stroke:none;" d="M11.6667 24.3333L12.3333 24.6667L11.6667 24.3333M9 25L9 27L11 25L9 25z"/>
<path style="fill:#e5b42e; stroke:none;" d="M13 25L14 26L13 25z"/>
<path style="fill:#c33e31; stroke:none;" d="M10 26L11 27L10 26z"/>
<path style="fill:#e5b42e; stroke:none;" d="M18 26L19 27L18 26M13 27L14 28L13 27z"/>
<path style="fill:#121111; stroke:none;" d="M20 27L23 33L24 33C24.5563 29.3489 23.3144 28.4072 20 27z"/>
<path style="fill:#c33e31; stroke:none;" d="M30 27L36 38L26 39L26 40L38 38L38 37L32 27L30 27z"/>
<path style="fill:#9fa1a3; stroke:none;" d="M12 28L15 30L12 28z"/>
<path style="fill:#c33e31; stroke:none;" d="M6 29L7 30L6 29M12 29L13 30L12 29z"/>
<path style="fill:#e5b42e; stroke:none;" d="M20 29L21 30L20 29z"/>
<path style="fill:#9fa1a3; stroke:none;" d="M6 31L6 32L8 35L4 32L3 33L7 38L3 37L6 40L2 42L6 46L8 42L8 47C16.1777 45.5145 20.053 37.8748 13 32L8 40L12 31L6 31z"/>
<path style="fill:#d0cecc; stroke:none;" d="M8.66667 31.3333L9.33333 31.6667L8.66667 31.3333z"/>
<path style="fill:#121111; stroke:none;" d="M30 31L29 38C31.7115 35.9281 31.915 33.7537 30 31z"/>
<path style="fill:#9fa1a3; stroke:none;" d="M35 31C36.0594 35.8026 37.6785 39.7122 31 39L31 42L35 45L32 43C34.6874 45.502 36.1932 45.1777 38 42L39 42L37 46L37 47C46.6071 45.4697 49.4557 33.9698 39 31L39 35L35 31z"/>
<path style="fill:#d0cecc; stroke:none;" d="M37.6667 31.3333L38.3333 31.6667L37.6667 31.3333M5 32L5 33L8 33L5 32z"/>
<path style="fill:#c33e31; stroke:none;" d="M11 32L12 33L11 32z"/>
<path style="fill:#e5b42e; stroke:none;" d="M22 32L23 33L22 32z"/>
<path style="fill:#d0cecc; stroke:none;" d="M26 32L27 33L26 32z"/>
<path style="fill:#9fa1a3; stroke:none;" d="M33 32L34 33L33 32z"/>
<path style="fill:#d0cecc; stroke:none;" d="M34.6667 32.3333L35.3333 32.6667L34.6667 32.3333z"/>
<path style="fill:#121111; stroke:none;" d="M38 32L38 35L40 32L38 32z"/>
<path style="fill:#c33e31; stroke:none;" d="M43 32L44 33L43 32z"/>
<path style="fill:#d0cecc; stroke:none;" d="M4 33L5 34L4 33z"/>
<path style="fill:#121111; stroke:none;" d="M6 33L8 35L8 33L6 33z"/>
<path style="fill:#c33e31; stroke:none;" d="M10.3333 33.6667L10.6667 34.3333L10.3333 33.6667M15 33L16 34L15 33z"/>
<path style="fill:#121111; stroke:none;" d="M24 33L25 34L24 33z"/>
<path style="fill:#e5b42e; stroke:none;" d="M34 33L35 34L34 33z"/>
<path style="fill:#c33e31; stroke:none;" d="M44 33L45 34L44 33M2 34L3 35L2 34z"/>
<path style="fill:#d0cecc; stroke:none;" d="M3 34L3 43L4 43L5 35L3 34z"/>
<path style="fill:#9fa1a3; stroke:none;" d="M24 34L25 35L24 34z"/>
<path style="fill:#d0cecc; stroke:none;" d="M32 34L31 38L32 38L32 34z"/>
<path style="fill:#9fa1a3; stroke:none;" d="M33 34L32 38L36 38L33 34z"/>
<path style="fill:#121111; stroke:none;" d="M42 34L41 36L43 36L42 34z"/>
<path style="fill:#9fa1a3; stroke:none;" d="M2 35L3 36L2 35M31 35L32 36L31 35z"/>
<path style="fill:#e5b42e; stroke:none;" d="M36 35L37 36L36 35z"/>
<path style="fill:#121111; stroke:none;" d="M3 36L3 37L7 38L7 37L3 36z"/>
<path style="fill:#c33e31; stroke:none;" d="M9 36L10 37L9 36z"/>
<path style="fill:#121111; stroke:none;" d="M12 37L12 38L16 38L12 37z"/>
<path style="fill:#9fa1a3; stroke:none;" d="M28.3333 36.6667L28.6667 37.3333L28.3333 36.6667M1 37L1 40L2 40L1 37M23 37L23 41L24 41L23 37z"/>
<path style="fill:#c33e31; stroke:none;" d="M46 37L46 40L47 40L46 37M8.33333 38.6667L8.66667 39.3333L8.33333 38.6667M10 38L11 39L10 38z"/>
<path style="fill:#d0cecc; stroke:none;" d="M24 38L24 39L28 39L24 38z"/>
<path style="fill:#121111; stroke:none;" d="M42 38L45 40L42 38z"/>
<path style="fill:#c33e31; stroke:none;" d="M1 40L2 41L1 40z"/>
<path style="fill:#121111; stroke:none;" d="M3 40L4 42L5 42L6 40L3 40M13 40L15 42L15 40L13 40z"/>
<path style="fill:#9fa1a3; stroke:none;" d="M28 40L25 41L25 42L28 40z"/>
<path style="fill:#d0cecc; stroke:none;" d="M31 40L32 41L31 40z"/>
<path style="fill:#c33e31; stroke:none;" d="M29 41L30 42L29 41z"/>
<path style="fill:#121111; stroke:none;" d="M35 41L36 42L35 41M41 41L44 43L41 41M7 42L8 45L7 42M10 42L12 45L10 42z"/>
<path style="fill:#9fa1a3; stroke:none;" d="M22.6667 42.3333L23.3333 42.6667L22.6667 42.3333z"/>
<path style="fill:#c33e31; stroke:none;" d="M23 43L23 44L28 43L23 43M31 42L32 43L31 42z"/>
<path style="fill:#d0cecc; stroke:none;" d="M32 42L35 45L32 42z"/>
<path style="fill:#121111; stroke:none;" d="M34.3333 42.6667L34.6667 43.3333L34.3333 42.6667M38 42L37 45L38 42z"/>
<path style="fill:#c33e31; stroke:none;" d="M45 42L46 43L45 42z"/>
<path style="fill:#d0cecc; stroke:none;" d="M4 43L5 44L4 43z"/>
<path style="fill:#e5b42e; stroke:none;" d="M27 43L28 44L27 43z"/>
<path style="fill:#d0cecc; stroke:none;" d="M5 44L8 46L5 44z"/>
<path style="fill:#c33e31; stroke:none;" d="M13 45L14 46L13 45z"/>
<path style="fill:#d0cecc; stroke:none;" d="M36 45L36 46L39 46L36 45z"/>
<path style="fill:#c33e31; stroke:none;" d="M7 46L8 47L7 46M11 46L12 47L11 46M36 46L37 47L36 46M40 46L41 47L40 46z"/>
</svg>
