<?xml version="1.0" standalone="yes"?>
<svg xmlns="http://www.w3.org/2000/svg" width="96" height="96">
<path style="fill:#ffffff; stroke:none;" d="M0 0L0 96L96 96L96 0L0 0z"/>
<path style="fill:#a6a6a6; stroke:none;" d="M46 11L47 12L46 11z"/>
<path style="fill:#2a2a2a; stroke:none;" d="M47 11L48 12L47 11z"/>
<path style="fill:#4b4b4b; stroke:none;" d="M48 11L49 12L48 11z"/>
<path style="fill:#a6a6a6; stroke:none;" d="M49 11L50 12L49 11z"/>
<path style="fill:#4b4b4b; stroke:none;" d="M46 12L47 13L46 12z"/>
<path style="fill:#010101; stroke:none;" d="M47 12C38.8537 19.6908 21.3566 12.9387 11 16L11 18C16.8279 24.1731 16.8279 54.8269 11 61L11 63L43 64L27 82C34.668 79.8477 40.5041 71.4959 46 66L47 85L49 85L50 66C55.4959 71.4959 61.332 79.8477 69 82L53 64L85 63L85 61C79.1721 54.8269 79.1721 24.1731 85 18L85 16C74.6434 12.9387 57.1463 19.6908 49 12L47 12z"/>
<path style="fill:#2a2a2a; stroke:none;" d="M49 12L50 13L49 12z"/>
<path style="fill:#a6a6a6; stroke:none;" d="M10 15L11 16L10 15z"/>
<path style="fill:#2a2a2a; stroke:none;" d="M11 15L12 16L11 15z"/>
<path style="fill:#4b4b4b; stroke:none;" d="M84 15L85 16L84 15z"/>
<path style="fill:#a6a6a6; stroke:none;" d="M85 15L86 16L85 15z"/>
<path style="fill:#4b4b4b; stroke:none;" d="M10 16L11 17L10 16z"/>
<path style="fill:#2a2a2a; stroke:none;" d="M85.3333 16.6667L85.6667 17.3333L85.3333 16.6667M10 17L12 19L10 17z"/>
<path style="fill:#a6a6a6; stroke:none;" d="M10 18L11 19L10 18z"/>
<path style="fill:#4b4b4b; stroke:none;" d="M84 18L85 19L84 18z"/>
<path style="fill:#a6a6a6; stroke:none;" d="M85 18L86 19L85 18z"/>
<path style="fill:#ffffff; stroke:none;" d="M20 22L20 58L76 58L76 22L20 22z"/>
<path style="fill:#4b4b4b; stroke:none;" d="M41 27L42 28L41 27z"/>
<path style="fill:#010101; stroke:none;" d="M41 28L41 52L60 39L41 28z"/>
<path style="fill:#a6a6a6; stroke:none;" d="M43 28L44 29L43 28z"/>
<path style="fill:#4b4b4b; stroke:none;" d="M44 29L45 30L44 29z"/>
<path style="fill:#a6a6a6; stroke:none;" d="M45 29L47 31L45 29z"/>
<path style="fill:#2a2a2a; stroke:none;" d="M45 30L46 31L45 30z"/>
<path style="fill:#4b4b4b; stroke:none;" d="M47 31L48 32L47 31z"/>
<path style="fill:#a6a6a6; stroke:none;" d="M48 31L50 33L48 31z"/>
<path style="fill:#2a2a2a; stroke:none;" d="M48 32L49 33L48 32z"/>
<path style="fill:#4b4b4b; stroke:none;" d="M50 33L51 34L50 33z"/>
<path style="fill:#a6a6a6; stroke:none;" d="M51 33L52 34L51 33z"/>
<path style="fill:#4b4b4b; stroke:none;" d="M52 34L53 35L52 34M53 35L54 36L53 35z"/>
<path style="fill:#a6a6a6; stroke:none;" d="M54 35L55 36L54 35z"/>
<path style="fill:#4b4b4b; stroke:none;" d="M55 36L56 37L55 36z"/>
<path style="fill:#a6a6a6; stroke:none;" d="M56 36L58 38L56 36z"/>
<path style="fill:#2a2a2a; stroke:none;" d="M56 37L57 38L56 37z"/>
<path style="fill:#4b4b4b; stroke:none;" d="M58 38L59 39L58 38z"/>
<path style="fill:#a6a6a6; stroke:none;" d="M59 38L60 39L59 38M60.3333 39.6667L60.6667 40.3333L60.3333 39.6667z"/>
<path style="fill:#4b4b4b; stroke:none;" d="M59 40L60 41L59 40z"/>
<path style="fill:#a6a6a6; stroke:none;" d="M58 41L59 42L58 41z"/>
<path style="fill:#4b4b4b; stroke:none;" d="M56 42L57 43L56 42z"/>
<path style="fill:#a6a6a6; stroke:none;" d="M57 42L58 43L57 42z"/>
<path style="fill:#2a2a2a; stroke:none;" d="M54 43L55 44L54 43z"/>
<path style="fill:#a6a6a6; stroke:none;" d="M55 43L56 44L55 43z"/>
<path style="fill:#4b4b4b; stroke:none;" d="M53 44L54 45L53 44z"/>
<path style="fill:#a6a6a6; stroke:none;" d="M54 44L55 45L54 44z"/>
<path style="fill:#2a2a2a; stroke:none;" d="M51 45L52 46L51 45z"/>
<path style="fill:#a6a6a6; stroke:none;" d="M52 45L53 46L52 45z"/>
<path style="fill:#4b4b4b; stroke:none;" d="M50 46L51 47L50 46z"/>
<path style="fill:#a6a6a6; stroke:none;" d="M51 46L52 47L51 46z"/>
<path style="fill:#2a2a2a; stroke:none;" d="M48 47L49 48L48 47z"/>
<path style="fill:#a6a6a6; stroke:none;" d="M49 47L50 48L49 47z"/>
<path style="fill:#4b4b4b; stroke:none;" d="M47 48L48 49L47 48z"/>
<path style="fill:#a6a6a6; stroke:none;" d="M48 48L49 49L48 48z"/>
<path style="fill:#4b4b4b; stroke:none;" d="M45 49L46 50L45 49z"/>
<path style="fill:#a6a6a6; stroke:none;" d="M46 49L47 50L46 49z"/>
<path style="fill:#4b4b4b; stroke:none;" d="M44 50L45 51L44 50z"/>
<path style="fill:#2a2a2a; stroke:none;" d="M42 51L43 52L42 51z"/>
<path style="fill:#a6a6a6; stroke:none;" d="M43 51L44 52L43 51M41 52L42 53L41 52M10 60L11 61L10 60z"/>
<path style="fill:#2a2a2a; stroke:none;" d="M11 60L12 61L11 60z"/>
<path style="fill:#4b4b4b; stroke:none;" d="M84 60L85 61L84 60z"/>
<path style="fill:#a6a6a6; stroke:none;" d="M85 60L86 61L85 60z"/>
<path style="fill:#4b4b4b; stroke:none;" d="M10 61L11 62L10 61z"/>
<path style="fill:#2a2a2a; stroke:none;" d="M85.3333 61.6667L85.6667 62.3333L85.3333 61.6667M10 62L12 64L10 62z"/>
<path style="fill:#a6a6a6; stroke:none;" d="M10 63L11 64L10 63z"/>
<path style="fill:#4b4b4b; stroke:none;" d="M84 63L85 64L84 63z"/>
<path style="fill:#a6a6a6; stroke:none;" d="M85 63L86 64L85 63z"/>
<path style="fill:#2a2a2a; stroke:none;" d="M42 64L43 65L42 64M53 64L54 65L53 64M41 65L42 66L41 65M54 65L55 66L54 65M40 66L41 67L40 66z"/>
<path style="fill:#4b4b4b; stroke:none;" d="M45 66L46 67L45 66M50 66L51 67L50 66z"/>
<path style="fill:#2a2a2a; stroke:none;" d="M55 66L56 67L55 66M39 67L40 68L39 67z"/>
<path style="fill:#4b4b4b; stroke:none;" d="M44 67L45 68L44 67M51 67L52 68L51 67z"/>
<path style="fill:#2a2a2a; stroke:none;" d="M56 67L57 68L56 67M38 68L39 69L38 68z"/>
<path style="fill:#4b4b4b; stroke:none;" d="M43 68L44 69L43 68M52 68L53 69L52 68z"/>
<path style="fill:#2a2a2a; stroke:none;" d="M57 68L58 69L57 68M37 69L38 70L37 69z"/>
<path style="fill:#4b4b4b; stroke:none;" d="M42 69L43 70L42 69M53 69L54 70L53 69z"/>
<path style="fill:#2a2a2a; stroke:none;" d="M58 69L59 70L58 69M36 70L37 71L36 70z"/>
<path style="fill:#4b4b4b; stroke:none;" d="M41 70L42 71L41 70M54 70L55 71L54 70z"/>
<path style="fill:#2a2a2a; stroke:none;" d="M59 70L60 71L59 70M35 71L36 72L35 71z"/>
<path style="fill:#4b4b4b; stroke:none;" d="M40 71L41 72L40 71M55 71L56 72L55 71z"/>
<path style="fill:#2a2a2a; stroke:none;" d="M60 71L61 72L60 71M34 72L35 73L34 72z"/>
<path style="fill:#4b4b4b; stroke:none;" d="M39 72L40 73L39 72M56 72L57 73L56 72z"/>
<path style="fill:#2a2a2a; stroke:none;" d="M61 72L62 73L61 72M33 73L34 74L33 73z"/>
<path style="fill:#4b4b4b; stroke:none;" d="M38 73L39 74L38 73M57 73L58 74L57 73z"/>
<path style="fill:#2a2a2a; stroke:none;" d="M62 73L63 74L62 73M32 74L33 75L32 74z"/>
<path style="fill:#4b4b4b; stroke:none;" d="M37 74L38 75L37 74M58 74L59 75L58 74z"/>
<path style="fill:#2a2a2a; stroke:none;" d="M63 74L64 75L63 74M31 75L32 76L31 75z"/>
<path style="fill:#4b4b4b; stroke:none;" d="M36 75L37 76L36 75M59 75L60 76L59 75z"/>
<path style="fill:#2a2a2a; stroke:none;" d="M64 75L65 76L64 75M30 76L31 77L30 76z"/>
<path style="fill:#4b4b4b; stroke:none;" d="M35 76L36 77L35 76M60 76L61 77L60 76z"/>
<path style="fill:#2a2a2a; stroke:none;" d="M65 76L66 77L65 76M29 77L30 78L29 77z"/>
<path style="fill:#4b4b4b; stroke:none;" d="M34 77L35 78L34 77M61 77L62 78L61 77z"/>
<path style="fill:#2a2a2a; stroke:none;" d="M66 77L67 78L66 77M28 78L29 79L28 78z"/>
<path style="fill:#4b4b4b; stroke:none;" d="M33 78L34 79L33 78M62 78L63 79L62 78z"/>
<path style="fill:#2a2a2a; stroke:none;" d="M67 78L68 79L67 78M27 79L28 80L27 79z"/>
<path style="fill:#4b4b4b; stroke:none;" d="M32 79L33 80L32 79M63 79L64 80L63 79z"/>
<path style="fill:#2a2a2a; stroke:none;" d="M68 79L69 80L68 79z"/>
<path style="fill:#a6a6a6; stroke:none;" d="M26 80L27 81L26 80z"/>
<path style="fill:#4b4b4b; stroke:none;" d="M31 80L32 81L31 80M64 80L65 81L64 80z"/>
<path style="fill:#a6a6a6; stroke:none;" d="M69.3333 80.6667L69.6667 81.3333L69.3333 80.6667z"/>
<path style="fill:#4b4b4b; stroke:none;" d="M30 81L31 82L30 81M65 81L66 82L65 81z"/>
<path style="fill:#a6a6a6; stroke:none;" d="M27 82L28 83L27 82z"/>
<path style="fill:#4b4b4b; stroke:none;" d="M28 82L29 83L28 82z"/>
<path style="fill:#a6a6a6; stroke:none;" d="M29 82L30 83L29 82M66 82L67 83L66 82z"/>
<path style="fill:#4b4b4b; stroke:none;" d="M67 82L68 83L67 82z"/>
<path style="fill:#a6a6a6; stroke:none;" d="M68 82L69 83L68 82z"/>
<path style="fill:#2a2a2a; stroke:none;" d="M46 84L48 86L46 84M49 84L50 85L49 84z"/>
<path style="fill:#a6a6a6; stroke:none;" d="M46 85L47 86L46 85z"/>
<path style="fill:#4b4b4b; stroke:none;" d="M48 85L49 86L48 85z"/>
<path style="fill:#a6a6a6; stroke:none;" d="M49 85L50 86L49 85z"/>
</svg>
