<?xml version="1.0" standalone="yes"?>
<svg xmlns="http://www.w3.org/2000/svg" width="310" height="163">
<path style="fill:#ffffff; stroke:none;" d="M0 0L0 163L310 163L310 0L0 0z"/>
<path style="fill:#a8a4ac; stroke:none;" d="M70 45L71 46L70 45z"/>
<path style="fill:#9f3ce1; stroke:none;" d="M57 61L71 54.5741L87 62C86.9849 42.4549 57.0696 41.2972 57 61z"/>
<path style="fill:#a8a4ac; stroke:none;" d="M73 45L74 46L73 45M68 46L69 47L68 46M75 46L76 47L75 46M66 47L67 48L66 47M78 48L79 49L78 48M63 49L64 50L63 49M80 49L81 50L80 49M61 50L62 51L61 50M85 52L86 53L85 52M71.6667 53.3333L72.3333 53.6667L71.6667 53.3333M56 54L58 62L56 54M69 54L70 55L69 54M75 55L76 56L75 55M66 56L67 57L66 56M77 56L78 57L77 56M64 57L65 58L64 57z"/>
<path style="fill:#5f5f5f; stroke:none;" d="M118 57L118 73L119 73L118 57z"/>
<path style="fill:#020202; stroke:none;" d="M119 57L119 73C115.286 70.889 111.394 68.9866 107 69.1335C86.6795 69.8129 86.3426 102.646 107 102.981C111.441 103.053 114.963 101.645 119 100C119.796 103.716 122.637 103 126 103L126 57L119 57z"/>
<path style="fill:#a8a4ac; stroke:none;" d="M126 57L126 103L127 103C127 89.9966 131.01 68.9389 126 57M82 59L83 60L82 59M59 60L60 61L59 60M84 60L85 61L84 60M146 68L146 69L150 69L146 68M56 92L57 92L57 70L64 70L64 90C65.8287 85.6421 66.0456 76.7406 64.6821 72.1481C63.7657 69.0615 59.1433 67.9386 57.0278 70.6034C53.7494 74.7329 56 86.8744 56 92M79 69L79 70L87 70L79 69M102 69L103 70L102 69z"/>
<path style="fill:#5f5f5f; stroke:none;" d="M103 69L104 70L103 69M111 69L112 70L111 69z"/>
<path style="fill:#a8a4ac; stroke:none;" d="M112 69L113 70L112 69M141 69L142 70L141 69z"/>
<path style="fill:#5f5f5f; stroke:none;" d="M142 69L143 70L142 69z"/>
<path style="fill:#020202; stroke:none;" d="M162 98L162 97C153.43 92.4532 141.371 102.053 138 88L164 88C163.669 72.4586 143.539 59.8316 133.228 76.0934C120.227 96.6003 146.107 108.471 162 98z"/>
<path style="fill:#5f5f5f; stroke:none;" d="M152 69L153 70L152 69z"/>
<path style="fill:#a8a4ac; stroke:none;" d="M153 69L154 70L153 69M168 69L168 70L176 70L168 69M180 69L181 70L180 69z"/>
<path style="fill:#5f5f5f; stroke:none;" d="M181 69L182 70L181 69z"/>
<path style="fill:#020202; stroke:none;" d="M175 73C174.204 69.2842 171.363 70 168 70L168 103L175 103C175 97.5087 172.523 73.0375 183.892 76.8009C191.893 79.4495 189 96.6517 189 103L196 103C196 96.8089 192.782 77.3861 202.012 76.466C212.202 75.4502 209 97.1462 209 103L216 103C216 92.0072 219.886 62.9609 200.002 70.1319C197.461 71.0483 195.243 72.5343 193 74C188.401 66.8501 181.141 69.4951 175 73z"/>
<path style="fill:#5f5f5f; stroke:none;" d="M187 69L188 70L187 69z"/>
<path style="fill:#a8a4ac; stroke:none;" d="M188 69L189 70L188 69M200 69L201 70L200 69z"/>
<path style="fill:#5f5f5f; stroke:none;" d="M201 69L202 70L201 69M208 69L209 70L208 69z"/>
<path style="fill:#a8a4ac; stroke:none;" d="M209 69L210 70L209 69M218 69L218 70L226 70L218 69M245 69L245 70L253 70L245 69z"/>
<path style="fill:#020202; stroke:none;" d="M57 70C57 77.5993 54.8774 89.0476 58.3179 95.9954C62.9193 105.287 79.5758 105.799 84.9105 96.9568C89.1898 89.8639 87 77.9776 87 70L79 70C79 76.195 80.9467 86.3888 77.9722 91.956C75.0514 97.4227 68.1918 97.4042 65.3179 91.9452C62.2318 86.0832 64 76.4525 64 70L57 70z"/>
<path style="fill:#5f5f5f; stroke:none;" d="M100 70L101 71L100 70M114 70L115 71L114 70z"/>
<path style="fill:#a8a4ac; stroke:none;" d="M115 70L116 71L115 70z"/>
<path style="fill:#5f5f5f; stroke:none;" d="M139 70L140 71L139 70z"/>
<path style="fill:#a8a4ac; stroke:none;" d="M155 70L156 71L155 70z"/>
<path style="fill:#5f5f5f; stroke:none;" d="M175 70L177 73L175 70z"/>
<path style="fill:#a8a4ac; stroke:none;" d="M178 70L179 71L178 70z"/>
<path style="fill:#5f5f5f; stroke:none;" d="M190 70L191 71L190 70z"/>
<path style="fill:#a8a4ac; stroke:none;" d="M197 70L198 71L197 70z"/>
<path style="fill:#5f5f5f; stroke:none;" d="M198 70L199 71L198 70z"/>
<path style="fill:#a8a4ac; stroke:none;" d="M211 70L212 71L211 70z"/>
<path style="fill:#020202; stroke:none;" d="M218 70C221.418 80.1026 239.898 108.356 222 112L222 118C239.924 117.838 247.459 84.2833 253 70C240.729 70.0435 239.946 84.7233 235 94L226 70L218 70z"/>
<path style="fill:#a8a4ac; stroke:none;" d="M98 71L99 72L98 71z"/>
<path style="fill:#5f5f5f; stroke:none;" d="M116 71L117 72L116 71z"/>
<path style="fill:#a8a4ac; stroke:none;" d="M137 71L138 72L137 71M157 71L158 72L157 71z"/>
<path style="fill:#5f5f5f; stroke:none;" d="M177 71L178 72L177 71M196 71L197 72L196 71z"/>
<path style="fill:#a8a4ac; stroke:none;" d="M212 71L213 72L212 71z"/>
<path style="fill:#5f5f5f; stroke:none;" d="M218 71L219 72L218 71z"/>
<path style="fill:#a8a4ac; stroke:none;" d="M226 71L227 72L226 71M244 71L245 72L244 71z"/>
<path style="fill:#5f5f5f; stroke:none;" d="M252 71L253 72L252 71M97 72L98 73L97 72M136 72L137 73L136 72z"/>
<path style="fill:#a8a4ac; stroke:none;" d="M158 72L159 73L158 72z"/>
<path style="fill:#5f5f5f; stroke:none;" d="M192 72L193 73L192 72M195 72L196 73L195 72z"/>
<path style="fill:#a8a4ac; stroke:none;" d="M213 72L214 73L213 72M218 72L219 73L218 72z"/>
<path style="fill:#5f5f5f; stroke:none;" d="M226 72L227 73L226 72M96 73L97 74L96 73z"/>
<path style="fill:#a8a4ac; stroke:none;" d="M159 73L160 74L159 73M193 73L194 74L193 73M214 73L215 74L214 73M243 73L244 74L243 73z"/>
<path style="fill:#5f5f5f; stroke:none;" d="M251 73L252 74L251 73M95 74L96 75L95 74z"/>
<path style="fill:#a8a4ac; stroke:none;" d="M160 74L161 75L160 74M219 74L220 75L219 74M227 74L228 75L227 74z"/>
<path style="fill:#5f5f5f; stroke:none;" d="M243 74L244 75L243 74z"/>
<path style="fill:#a8a4ac; stroke:none;" d="M251 74L252 75L251 74z"/>
<path style="fill:#5f5f5f; stroke:none;" d="M94 75L95 76L94 75M133 75L134 76L133 75M144 75L145 76L144 75z"/>
<path style="fill:#a8a4ac; stroke:none;" d="M145 75L145 76L150 76L145 75z"/>
<path style="fill:#5f5f5f; stroke:none;" d="M150 75L151 76L150 75z"/>
<path style="fill:#a8a4ac; stroke:none;" d="M215 75L216 76L215 75M93 76L94 77L93 76M105.667 76.3333L106.333 76.6667L105.667 76.3333z"/>
<path style="fill:#ffffff; stroke:none;" d="M107.004 76.5733C94.5311 79.0059 98.3745 97.9215 110.996 95.7677C123.22 93.6818 119.209 74.1928 107.004 76.5733z"/>
<path style="fill:#a8a4ac; stroke:none;" d="M111 76L112 77L111 76z"/>
<path style="fill:#5f5f5f; stroke:none;" d="M112 76L113 77L112 76z"/>
<path style="fill:#a8a4ac; stroke:none;" d="M132 76L133 77L132 76z"/>
<path style="fill:#5f5f5f; stroke:none;" d="M142 76L143 77L142 76z"/>
<path style="fill:#ffffff; stroke:none;" d="M139 82L156 82C152.156 74.8305 142.177 73.5021 139 82z"/>
<path style="fill:#5f5f5f; stroke:none;" d="M152 76L153 77L152 76M161 76L162 77L161 76M179 76L180 77L179 76z"/>
<path style="fill:#a8a4ac; stroke:none;" d="M184 76L185 77L184 76z"/>
<path style="fill:#5f5f5f; stroke:none;" d="M199 76L200 77L199 76z"/>
<path style="fill:#a8a4ac; stroke:none;" d="M200 76L201 77L200 76z"/>
<path style="fill:#5f5f5f; stroke:none;" d="M205 76L206 77L205 76M215 76L216 77L215 76M220 76L221 77L220 76z"/>
<path style="fill:#a8a4ac; stroke:none;" d="M228 76L229 77L228 76M242 76L243 77L242 76M250 76L251 77L250 76M103 77L104 78L103 77z"/>
<path style="fill:#5f5f5f; stroke:none;" d="M114 77L115 78L114 77z"/>
<path style="fill:#a8a4ac; stroke:none;" d="M141 77L142 78L141 77M153 77L154 78L153 77M162 77L163 78L162 77M178 77L179 78L178 77z"/>
<path style="fill:#5f5f5f; stroke:none;" d="M186 77L187 78L186 77M198 77L199 78L198 77z"/>
<path style="fill:#a8a4ac; stroke:none;" d="M206 77L207 78L206 77M220 77L221 78L220 77z"/>
<path style="fill:#5f5f5f; stroke:none;" d="M228 77L229 78L228 77z"/>
<path style="fill:#a8a4ac; stroke:none;" d="M92 78L93 79L92 78M115 78L116 79L115 78M131 78L132 79L131 78M154 78L155 79L154 78z"/>
<path style="fill:#5f5f5f; stroke:none;" d="M162 78L163 79L162 78z"/>
<path style="fill:#a8a4ac; stroke:none;" d="M177 78L178 79L177 78z"/>
<path style="fill:#5f5f5f; stroke:none;" d="M197 78L198 79L197 78z"/>
<path style="fill:#a8a4ac; stroke:none;" d="M207 78L208 79L207 78M216 78L216 81L217 81L216 78M241 78L242 79L241 78z"/>
<path style="fill:#5f5f5f; stroke:none;" d="M249 78L250 79L249 78M92 79L93 80L92 79z"/>
<path style="fill:#a8a4ac; stroke:none;" d="M116 79L117 80L116 79z"/>
<path style="fill:#5f5f5f; stroke:none;" d="M131 79L132 80L131 79z"/>
<path style="fill:#a8a4ac; stroke:none;" d="M139 79L140 80L139 79z"/>
<path style="fill:#5f5f5f; stroke:none;" d="M155 79L156 80L155 79M176 79L177 80L176 79z"/>
<path style="fill:#a8a4ac; stroke:none;" d="M187 79L188 80L187 79M221 79L222 80L221 79M229 79L230 80L229 79z"/>
<path style="fill:#5f5f5f; stroke:none;" d="M241 79L242 80L241 79z"/>
<path style="fill:#a8a4ac; stroke:none;" d="M100 80L101 81L100 80z"/>
<path style="fill:#5f5f5f; stroke:none;" d="M117 80L118 81L117 80M138 80L139 81L138 80z"/>
<path style="fill:#a8a4ac; stroke:none;" d="M155 80L156 81L155 80M163 80L164 81L163 80M176 80L177 81L176 80z"/>
<path style="fill:#5f5f5f; stroke:none;" d="M196 80L197 81L196 80M208 80L209 81L208 80M248 80L249 81L248 80z"/>
<path style="fill:#a8a4ac; stroke:none;" d="M91 81L92 82L91 81M130.333 81.6667L130.667 82.3333L130.333 81.6667M138 81L138 82L156 83L156 82L138 81z"/>
<path style="fill:#5f5f5f; stroke:none;" d="M163 81L164 82L163 81z"/>
<path style="fill:#a8a4ac; stroke:none;" d="M196 81L197 82L196 81M208 81L208 103L209 103L208 81z"/>
<path style="fill:#5f5f5f; stroke:none;" d="M216 81L216 103L217 103L216 81M222 81L223 82L222 81z"/>
<path style="fill:#a8a4ac; stroke:none;" d="M230 81L231 82L230 81z"/>
<path style="fill:#5f5f5f; stroke:none;" d="M240 81L241 82L240 81z"/>
<path style="fill:#a8a4ac; stroke:none;" d="M248 81L249 82L248 81z"/>
<path style="fill:#5f5f5f; stroke:none;" d="M91.3333 82.6667L91.6667 83.3333L91.3333 82.6667z"/>
<path style="fill:#a8a4ac; stroke:none;" d="M99 82L100 83L99 82z"/>
<path style="fill:#5f5f5f; stroke:none;" d="M118 82L119 83L118 82M138 82L139 83L138 82M188 82L188 103L189 103L188 82z"/>
<path style="fill:#a8a4ac; stroke:none;" d="M222 82L223 83L222 82z"/>
<path style="fill:#5f5f5f; stroke:none;" d="M230 82L231 83L230 82z"/>
<path style="fill:#a8a4ac; stroke:none;" d="M118 83L119 84L118 83z"/>
<path style="fill:#5f5f5f; stroke:none;" d="M130 83L130 90L131 90L130 83M175 83L175 103L176 103L175 83z"/>
<path style="fill:#a8a4ac; stroke:none;" d="M239 83L240 84L239 83M247 83L248 84L247 83M223 84L224 85L223 84M231 84L232 85L231 84z"/>
<path style="fill:#5f5f5f; stroke:none;" d="M239 84L240 85L239 84M246 85L247 86L246 85M224 86L225 87L224 86z"/>
<path style="fill:#a8a4ac; stroke:none;" d="M232 86L233 87L232 86z"/>
<path style="fill:#5f5f5f; stroke:none;" d="M238 86L239 87L238 86z"/>
<path style="fill:#a8a4ac; stroke:none;" d="M224 87L225 88L224 87z"/>
<path style="fill:#5f5f5f; stroke:none;" d="M232 87L233 88L232 87M245 87L246 88L245 87z"/>
<path style="fill:#a8a4ac; stroke:none;" d="M118.333 88.6667L118.667 89.3333L118.333 88.6667z"/>
<path style="fill:#5f5f5f; stroke:none;" d="M138 88L138 89L164 89L138 88z"/>
<path style="fill:#a8a4ac; stroke:none;" d="M237 88L238 89L237 88M245 88L246 89L245 88z"/>
<path style="fill:#5f5f5f; stroke:none;" d="M91 89L92 90L91 89z"/>
<path style="fill:#a8a4ac; stroke:none;" d="M99 89L100 90L99 89M225 89L226 90L225 89M233 89L234 90L233 89z"/>
<path style="fill:#5f5f5f; stroke:none;" d="M64 90L65 91L64 90z"/>
<path style="fill:#a8a4ac; stroke:none;" d="M91.3333 90.6667L91.6667 91.3333L91.3333 90.6667z"/>
<path style="fill:#5f5f5f; stroke:none;" d="M99 90L100 91L99 90z"/>
<path style="fill:#a8a4ac; stroke:none;" d="M130.333 90.6667L130.667 91.3333L130.333 90.6667M138 90L139 91L138 90M236 90L237 91L236 90M244 90L245 91L244 90M117 91L118 92L117 91z"/>
<path style="fill:#5f5f5f; stroke:none;" d="M138 91L139 92L138 91M226 91L227 92L226 91z"/>
<path style="fill:#a8a4ac; stroke:none;" d="M234 91L235 92L234 91z"/>
<path style="fill:#5f5f5f; stroke:none;" d="M236 91L237 92L236 91z"/>
<path style="fill:#a8a4ac; stroke:none;" d="M65 92L66 93L65 92z"/>
<path style="fill:#5f5f5f; stroke:none;" d="M78 92L79 93L78 92M100 92L101 93L100 92z"/>
<path style="fill:#a8a4ac; stroke:none;" d="M226 92L227 93L226 92z"/>
<path style="fill:#5f5f5f; stroke:none;" d="M234 92L235 93L234 92M243 92L244 93L243 92M65 93L66 94L65 93M86 93L87 94L86 93M92 93L93 94L92 93M101 93L102 94L101 93M131 93L132 94L131 93M235 93L236 94L235 93M57 94L58 95L57 94M66 94L67 95L66 94z"/>
<path style="fill:#a8a4ac; stroke:none;" d="M86 94L87 95L86 94z"/>
<path style="fill:#5f5f5f; stroke:none;" d="M102 94L103 95L102 94M140 94L141 95L140 94z"/>
<path style="fill:#a8a4ac; stroke:none;" d="M155 94L156 95L155 94z"/>
<path style="fill:#5f5f5f; stroke:none;" d="M157 94L158 95L157 94z"/>
<path style="fill:#a8a4ac; stroke:none;" d="M227 94L228 95L227 94z"/>
<path style="fill:#5f5f5f; stroke:none;" d="M242 94L243 95L242 94z"/>
<path style="fill:#a8a4ac; stroke:none;" d="M57 95L58 96L57 95z"/>
<path style="fill:#5f5f5f; stroke:none;" d="M67 95L68 96L67 95z"/>
<path style="fill:#a8a4ac; stroke:none;" d="M75 95L76 96L75 95z"/>
<path style="fill:#5f5f5f; stroke:none;" d="M93 95L94 96L93 95z"/>
<path style="fill:#a8a4ac; stroke:none;" d="M104 95L105 96L104 95z"/>
<path style="fill:#5f5f5f; stroke:none;" d="M113 95L114 96L113 95M132 95L133 96L132 95z"/>
<path style="fill:#a8a4ac; stroke:none;" d="M142 95L143 96L142 95z"/>
<path style="fill:#5f5f5f; stroke:none;" d="M154 95L155 96L154 95z"/>
<path style="fill:#a8a4ac; stroke:none;" d="M159 95L160 96L159 95M242 95L243 96L242 95z"/>
<path style="fill:#5f5f5f; stroke:none;" d="M70 96L71 97L70 96z"/>
<path style="fill:#a8a4ac; stroke:none;" d="M71.6667 96.3333L72.3333 96.6667L71.6667 96.3333z"/>
<path style="fill:#5f5f5f; stroke:none;" d="M73 96L74 97L73 96M85 96L86 97L85 96M106.667 96.3333L107.333 96.6667L106.667 96.3333z"/>
<path style="fill:#a8a4ac; stroke:none;" d="M108.667 96.3333L109.333 96.6667L108.667 96.3333z"/>
<path style="fill:#5f5f5f; stroke:none;" d="M110 96L111 97L110 96z"/>
<path style="fill:#a8a4ac; stroke:none;" d="M144 96L145 97L144 96M151 96L152 97L151 96z"/>
<path style="fill:#5f5f5f; stroke:none;" d="M152 96L153 97L152 96z"/>
<path style="fill:#a8a4ac; stroke:none;" d="M161 96L162 97L161 96z"/>
<path style="fill:#5f5f5f; stroke:none;" d="M228 96L229 97L228 96z"/>
<path style="fill:#a8a4ac; stroke:none;" d="M58 97L59 98L58 97M133 97L134 98L133 97M241 97L242 98L241 97z"/>
<path style="fill:#5f5f5f; stroke:none;" d="M59 98L60 99L59 98z"/>
<path style="fill:#a8a4ac; stroke:none;" d="M84 98L85 99L84 98M95 98L96 99L95 98M134 98L135 99L134 98z"/>
<path style="fill:#5f5f5f; stroke:none;" d="M229 98L230 99L229 98M60 99L61 100L60 99z"/>
<path style="fill:#a8a4ac; stroke:none;" d="M83 99L84 100L83 99M96 99L97 100L96 99M135 99L136 100L135 99z"/>
<path style="fill:#5f5f5f; stroke:none;" d="M159 99L160 100L159 99z"/>
<path style="fill:#a8a4ac; stroke:none;" d="M229 99L230 100L229 99z"/>
<path style="fill:#5f5f5f; stroke:none;" d="M240 99L241 100L240 99M61 100L62 101L61 100z"/>
<path style="fill:#a8a4ac; stroke:none;" d="M82 100L83 101L82 100M117 100L118 101L117 100z"/>
<path style="fill:#5f5f5f; stroke:none;" d="M118 100L118 103L119 103L118 100z"/>
<path style="fill:#a8a4ac; stroke:none;" d="M136 100L137 101L136 100M158 100L159 101L158 100M240 100L241 101L240 100M62 101L63 102L62 101z"/>
<path style="fill:#5f5f5f; stroke:none;" d="M80 101L81 102L80 101z"/>
<path style="fill:#a8a4ac; stroke:none;" d="M99 101L100 102L99 101z"/>
<path style="fill:#5f5f5f; stroke:none;" d="M115 101L116 102L115 101z"/>
<path style="fill:#a8a4ac; stroke:none;" d="M138 101L139 102L138 101z"/>
<path style="fill:#5f5f5f; stroke:none;" d="M156 101L157 102L156 101M230 101L231 102L230 101z"/>
<path style="fill:#a8a4ac; stroke:none;" d="M64 102L65 103L64 102z"/>
<path style="fill:#5f5f5f; stroke:none;" d="M65 102L66 103L65 102M78 102L79 103L78 102z"/>
<path style="fill:#a8a4ac; stroke:none;" d="M101 102L102 103L101 102z"/>
<path style="fill:#5f5f5f; stroke:none;" d="M113 102L114 103L113 102z"/>
<path style="fill:#a8a4ac; stroke:none;" d="M114 102L115 103L114 102M140 102L141 103L140 102z"/>
<path style="fill:#5f5f5f; stroke:none;" d="M141 102L142 103L141 102M154 102L155 103L154 102z"/>
<path style="fill:#a8a4ac; stroke:none;" d="M239 102L240 103L239 102M67.6667 103.333L68.3333 103.667L67.6667 103.333z"/>
<path style="fill:#5f5f5f; stroke:none;" d="M69 103L69 104L75 104L69 103z"/>
<path style="fill:#a8a4ac; stroke:none;" d="M75.6667 103.333L76.3333 103.667L75.6667 103.333M104.667 103.333L105.333 103.667L104.667 103.333z"/>
<path style="fill:#5f5f5f; stroke:none;" d="M106 103L106 104L109 104L106 103z"/>
<path style="fill:#a8a4ac; stroke:none;" d="M109.667 103.333L110.333 103.667L109.667 103.333M143.667 103.333L144.333 103.667L143.667 103.333z"/>
<path style="fill:#5f5f5f; stroke:none;" d="M145 103L145 104L150 104L145 103z"/>
<path style="fill:#a8a4ac; stroke:none;" d="M150.667 103.333L151.333 103.667L150.667 103.333M230 104L231 105L230 104M238 104L239 105L238 104z"/>
<path style="fill:#5f5f5f; stroke:none;" d="M230 105L231 106L230 105M237 106L238 107L237 106M229 107L230 108L229 107z"/>
<path style="fill:#a8a4ac; stroke:none;" d="M237 107L238 108L237 107z"/>
<path style="fill:#5f5f5f; stroke:none;" d="M228 109L229 110L228 109z"/>
<path style="fill:#a8a4ac; stroke:none;" d="M236 109L237 110L236 109z"/>
<path style="fill:#5f5f5f; stroke:none;" d="M227 110L228 111L227 110z"/>
<path style="fill:#a8a4ac; stroke:none;" d="M221 111L221 118L222 118L221 111z"/>
<path style="fill:#5f5f5f; stroke:none;" d="M222 111L223 112L222 111z"/>
<path style="fill:#a8a4ac; stroke:none;" d="M223.667 111.333L224.333 111.667L223.667 111.333z"/>
<path style="fill:#5f5f5f; stroke:none;" d="M225 111L226 112L225 111z"/>
<path style="fill:#a8a4ac; stroke:none;" d="M235 111L236 112L235 111M233 114L234 115L233 114z"/>
<path style="fill:#5f5f5f; stroke:none;" d="M232 115L233 116L232 115z"/>
<path style="fill:#a8a4ac; stroke:none;" d="M231 116L232 117L231 116z"/>
<path style="fill:#5f5f5f; stroke:none;" d="M229 117L230 118L229 117z"/>
<path style="fill:#a8a4ac; stroke:none;" d="M222 118L222 119L228 119L222 118z"/>
</svg>
