<?xml version="1.0" standalone="no"?>
<!DOCTYPE svg PUBLIC "-//W3C//DTD SVG 20010904//EN"
 "http://www.w3.org/TR/2001/REC-SVG-20010904/DTD/svg10.dtd">
<svg version="1.0" xmlns="http://www.w3.org/2000/svg"
 width="96.000000pt" height="96.000000pt" viewBox="0 0 96.000000 96.000000"
 preserveAspectRatio="xMidYMid meet" >

<g transform="translate(0.000000,96.000000) scale(0.100000,-0.100000)"
fill="#2A7AE4" stroke="none">
<path d="M365 800 c-119 -38 -220 -146 -250 -267 -11 -42 -15 -97 -13 -180 3
-115 4 -118 26 -121 17 -3 25 2 29 17 3 12 14 21 24 21 16 0 19 -8 19 -53 0
-29 5 -58 12 -65 16 -16 100 -16 116 0 17 17 17 259 0 276 -16 16 -100 16
-116 0 -7 -7 -12 -36 -12 -65 0 -47 -2 -53 -21 -53 -21 0 -21 3 -17 103 4 82
10 113 30 157 54 117 159 184 288 184 129 0 234 -67 288 -184 20 -44 26 -75
30 -157 4 -100 4 -103 -17 -103 -19 0 -21 6 -21 53 0 29 -5 58 -12 65 -16 16
-100 16 -116 0 -17 -17 -17 -259 0 -276 16 -16 100 -16 116 0 7 7 12 36 12 65
0 45 3 53 19 53 10 0 21 -9 24 -21 4 -15 12 -20 29 -17 22 3 23 6 26 128 2
102 -1 136 -18 191 -60 200 -276 312 -475 249z"/>
</g>
</svg>
