<?xml version="1.0" standalone="yes"?>
<svg xmlns="http://www.w3.org/2000/svg" width="96" height="96">
<path style="fill:#ffffff; stroke:none;" d="M0 0L0 96L96 96L96 0L0 0z"/>
<path style="fill:#a4a4a4; stroke:none;" d="M35 5L36 6L35 5z"/>
<path style="fill:#717171; stroke:none;" d="M36 5L37 6L36 5z"/>
<path style="fill:#4d4d4d; stroke:none;" d="M37 5L38 6L37 5z"/>
<path style="fill:#030303; stroke:none;" d="M38.0046 5.78627C28.6529 7.01739 30.7834 21.8053 39.9954 20.1582C48.8143 18.5813 46.9834 4.60426 38.0046 5.78627z"/>
<path style="fill:#4d4d4d; stroke:none;" d="M40 5L41 6L40 5z"/>
<path style="fill:#a4a4a4; stroke:none;" d="M41 5L42 6L41 5z"/>
<path style="fill:#717171; stroke:none;" d="M34 6L35 7L34 6z"/>
<path style="fill:#4d4d4d; stroke:none;" d="M42 6L43 7L42 6z"/>
<path style="fill:#a4a4a4; stroke:none;" d="M43 6L44 7L43 6z"/>
<path style="fill:#4d4d4d; stroke:none;" d="M33 7L34 8L33 7z"/>
<path style="fill:#717171; stroke:none;" d="M44 7L45 8L44 7M32 8L33 9L32 8z"/>
<path style="fill:#a4a4a4; stroke:none;" d="M45 8L46 9L45 8M31 9L32 10L31 9z"/>
<path style="fill:#717171; stroke:none;" d="M31 10L32 11L31 10z"/>
<path style="fill:#a4a4a4; stroke:none;" d="M46 10L47 11L46 10z"/>
<path style="fill:#4d4d4d; stroke:none;" d="M31 11L32 12L31 11z"/>
<path style="fill:#717171; stroke:none;" d="M46 11L47 12L46 11z"/>
<path style="fill:#4d4d4d; stroke:none;" d="M46.3333 12.6667L46.6667 13.3333L46.3333 12.6667M31 14L32 15L31 14z"/>
<path style="fill:#717171; stroke:none;" d="M46 14L47 15L46 14M31 15L32 16L31 15z"/>
<path style="fill:#a4a4a4; stroke:none;" d="M46 15L47 16L46 15M31 16L32 17L31 16z"/>
<path style="fill:#717171; stroke:none;" d="M32 17L33 18L32 17z"/>
<path style="fill:#a4a4a4; stroke:none;" d="M45 17L46 18L45 17z"/>
<path style="fill:#4d4d4d; stroke:none;" d="M33 18L34 19L33 18z"/>
<path style="fill:#717171; stroke:none;" d="M44 18L45 19L44 18M34 19L35 20L34 19z"/>
<path style="fill:#4d4d4d; stroke:none;" d="M42 19L43 20L42 19z"/>
<path style="fill:#a4a4a4; stroke:none;" d="M43 19L44 20L43 19M35 20L36 21L35 20z"/>
<path style="fill:#717171; stroke:none;" d="M36 20L37 21L36 20z"/>
<path style="fill:#4d4d4d; stroke:none;" d="M37 20L38 21L37 20M40 20L41 21L40 20z"/>
<path style="fill:#a4a4a4; stroke:none;" d="M41 20L42 21L41 20M44 23L45 24L44 23z"/>
<path style="fill:#717171; stroke:none;" d="M45 23L46 24L45 23z"/>
<path style="fill:#4d4d4d; stroke:none;" d="M46 23L47 24L46 23z"/>
<path style="fill:#030303; stroke:none;" d="M25 40C22.6493 39.1132 8.265 34.4596 11.2562 41.7917C15.8256 52.9923 30.8796 45.2257 34 38L35 38C35 50.7254 24.8875 65.3896 29.054 77C30.0435 79.7574 34.1236 93.9948 39.2184 89.1991C43.0944 85.5506 36.4383 76.1866 35.9707 72C35.3424 66.3745 39.5407 60.3354 41 55L42 55C42.2018 64.7769 43.5994 72.0351 49.4252 79.9992C50.8465 81.9423 57.0505 90.171 59.3526 84.6775C61.713 79.045 52.472 71.9004 50.7276 67C47.2445 57.2151 48.0011 42.3587 48 32C54.8913 36.0222 59.6293 38.764 66.9992 34.3951C69.3809 32.9832 76.3096 29.2939 73.1489 25.615C69.7677 21.6793 63.6413 28.2748 60 28.4583C55.7224 28.674 52.2064 24.5266 48 23.9375C37.0087 22.3982 28.4361 30.6146 25 40z"/>
<path style="fill:#717171; stroke:none;" d="M48 23L49 24L48 23z"/>
<path style="fill:#a4a4a4; stroke:none;" d="M69 23L70 24L69 23z"/>
<path style="fill:#717171; stroke:none;" d="M70.6667 23.3333L71.3333 23.6667L70.6667 23.3333z"/>
<path style="fill:#a4a4a4; stroke:none;" d="M72 23L73 24L72 23M41 24L42 25L41 24z"/>
<path style="fill:#4d4d4d; stroke:none;" d="M42 24L43 25L42 24z"/>
<path style="fill:#717171; stroke:none;" d="M50 24L51 25L50 24z"/>
<path style="fill:#a4a4a4; stroke:none;" d="M67 24L68 25L67 24z"/>
<path style="fill:#4d4d4d; stroke:none;" d="M68 24L69 25L68 24M73 24L74 25L73 24z"/>
<path style="fill:#a4a4a4; stroke:none;" d="M37 25L38 26L37 25z"/>
<path style="fill:#717171; stroke:none;" d="M38 25L39 26L38 25z"/>
<path style="fill:#4d4d4d; stroke:none;" d="M39 25L40 26L39 25z"/>
<path style="fill:#717171; stroke:none;" d="M52 25L53 26L52 25M66 25L67 26L66 25z"/>
<path style="fill:#a4a4a4; stroke:none;" d="M74 25L75 26L74 25M34 26L35 27L34 26z"/>
<path style="fill:#717171; stroke:none;" d="M35 26L36 27L35 26z"/>
<path style="fill:#4d4d4d; stroke:none;" d="M36 26L37 27L36 26z"/>
<path style="fill:#a4a4a4; stroke:none;" d="M54 26L55 27L54 26M64 26L65 27L64 26z"/>
<path style="fill:#4d4d4d; stroke:none;" d="M74 26L75 27L74 26z"/>
<path style="fill:#717171; stroke:none;" d="M32 27L33 28L32 27z"/>
<path style="fill:#a4a4a4; stroke:none;" d="M56 27L57 28L56 27z"/>
<path style="fill:#717171; stroke:none;" d="M63 27L64 28L63 27z"/>
<path style="fill:#4d4d4d; stroke:none;" d="M57 28L58 29L57 28z"/>
<path style="fill:#a4a4a4; stroke:none;" d="M58 28L59 29L58 28M61 28L62 29L61 28z"/>
<path style="fill:#4d4d4d; stroke:none;" d="M74 28L75 29L74 28M30 29L31 30L30 29M59.6667 29.3333L60.3333 29.6667L59.6667 29.3333z"/>
<path style="fill:#a4a4a4; stroke:none;" d="M74 29L75 30L74 29M29 30L30 31L29 30M73 30L74 31L73 30z"/>
<path style="fill:#4d4d4d; stroke:none;" d="M29 31L30 32L29 31M71 31L72 32L71 31z"/>
<path style="fill:#a4a4a4; stroke:none;" d="M28 32L29 33L28 32z"/>
<path style="fill:#717171; stroke:none;" d="M48 32L49 33L48 32z"/>
<path style="fill:#a4a4a4; stroke:none;" d="M70 32L71 33L70 32M48 33L48 36L49 36L48 33M50 33L51 34L50 33z"/>
<path style="fill:#717171; stroke:none;" d="M68 33L69 34L68 33M27 34L28 35L27 34M52 34L53 35L52 34z"/>
<path style="fill:#4d4d4d; stroke:none;" d="M66 34L67 35L66 34z"/>
<path style="fill:#a4a4a4; stroke:none;" d="M67 34L68 35L67 34M26 35L27 36L26 35M53 35L54 36L53 35z"/>
<path style="fill:#717171; stroke:none;" d="M54 35L55 36L54 35z"/>
<path style="fill:#a4a4a4; stroke:none;" d="M65 35L66 36L65 35M13.6667 36.3333L14.3333 36.6667L13.6667 36.3333z"/>
<path style="fill:#4d4d4d; stroke:none;" d="M26 36L27 37L26 36z"/>
<path style="fill:#717171; stroke:none;" d="M48 36L48 39L49 39L48 36z"/>
<path style="fill:#a4a4a4; stroke:none;" d="M55 36L56 37L55 36z"/>
<path style="fill:#4d4d4d; stroke:none;" d="M56 36L57 37L56 36M63 36L64 37L63 36z"/>
<path style="fill:#a4a4a4; stroke:none;" d="M64 36L65 37L64 36M11 37L12 38L11 37z"/>
<path style="fill:#4d4d4d; stroke:none;" d="M16 37L17 38L16 37z"/>
<path style="fill:#717171; stroke:none;" d="M17 37L18 38L17 37z"/>
<path style="fill:#a4a4a4; stroke:none;" d="M18 37L19 38L18 37M25 37L26 38L25 37M57 37L58 38L57 37z"/>
<path style="fill:#4d4d4d; stroke:none;" d="M58 37L59 38L58 37M61 37L62 38L61 37z"/>
<path style="fill:#a4a4a4; stroke:none;" d="M62 37L63 38L62 37M10 38L11 39L10 38z"/>
<path style="fill:#4d4d4d; stroke:none;" d="M20 38L21 39L20 38z"/>
<path style="fill:#717171; stroke:none;" d="M21 38L22 39L21 38z"/>
<path style="fill:#a4a4a4; stroke:none;" d="M22 38L23 39L22 38z"/>
<path style="fill:#4d4d4d; stroke:none;" d="M34 38L33 40L34 38z"/>
<path style="fill:#a4a4a4; stroke:none;" d="M60 38L61 39L60 38z"/>
<path style="fill:#4d4d4d; stroke:none;" d="M10 39L11 40L10 39M24 39L25 40L24 39z"/>
<path style="fill:#a4a4a4; stroke:none;" d="M34 39L34 43L35 43L34 39z"/>
<path style="fill:#4d4d4d; stroke:none;" d="M48 39L48 43L49 43L48 39z"/>
<path style="fill:#717171; stroke:none;" d="M80.6667 39.3333L81.3333 39.6667L80.6667 39.3333z"/>
<path style="fill:#a4a4a4; stroke:none;" d="M77 40L78 41L77 40z"/>
<path style="fill:#717171; stroke:none;" d="M78 40L79 41L78 40z"/>
<path style="fill:#030303; stroke:none;" d="M65 46L68 60L62 65C73.2108 67.4981 65.9724 54.4724 68.314 49.213C70.0625 45.286 76.4848 43.874 80 42L83 54L77 60C87.562 60.3881 83.1328 46.3002 81 40L65 46z"/>
<path style="fill:#4d4d4d; stroke:none;" d="M81 40L82 41L81 40z"/>
<path style="fill:#717171; stroke:none;" d="M32 41L33 42L32 41z"/>
<path style="fill:#a4a4a4; stroke:none;" d="M75 41L76 42L75 41z"/>
<path style="fill:#4d4d4d; stroke:none;" d="M76 41L77 42L76 41z"/>
<path style="fill:#717171; stroke:none;" d="M10 42L11 43L10 42M73 42L74 43L73 42z"/>
<path style="fill:#4d4d4d; stroke:none;" d="M79 42L80 43L79 42z"/>
<path style="fill:#a4a4a4; stroke:none;" d="M82.3333 42.6667L82.6667 43.3333L82.3333 42.6667z"/>
<path style="fill:#4d4d4d; stroke:none;" d="M11 43L12 44L11 43z"/>
<path style="fill:#a4a4a4; stroke:none;" d="M31 43L32 44L31 43M70 43L71 44L70 43z"/>
<path style="fill:#4d4d4d; stroke:none;" d="M71 43L72 44L71 43M77 43L78 44L77 43z"/>
<path style="fill:#a4a4a4; stroke:none;" d="M78 43L79 44L78 43z"/>
<path style="fill:#4d4d4d; stroke:none;" d="M80 43L81 44L80 43z"/>
<path style="fill:#a4a4a4; stroke:none;" d="M12 44L13 45L12 44z"/>
<path style="fill:#4d4d4d; stroke:none;" d="M13 44L14 45L13 44M30 44L31 45L30 44z"/>
<path style="fill:#a4a4a4; stroke:none;" d="M68 44L69 45L68 44z"/>
<path style="fill:#4d4d4d; stroke:none;" d="M69 44L70 45L69 44M74 44L75 45L74 44z"/>
<path style="fill:#717171; stroke:none;" d="M75 44L76 45L75 44z"/>
<path style="fill:#a4a4a4; stroke:none;" d="M76 44L77 45L76 44z"/>
<path style="fill:#717171; stroke:none;" d="M80 44L81 45L80 44M82 44L83 45L82 44z"/>
<path style="fill:#a4a4a4; stroke:none;" d="M15 45L16 46L15 45z"/>
<path style="fill:#717171; stroke:none;" d="M16 45L17 46L16 45z"/>
<path style="fill:#4d4d4d; stroke:none;" d="M17 45L18 46L17 45z"/>
<path style="fill:#a4a4a4; stroke:none;" d="M30 45L31 46L30 45M65 45L66 46L65 45z"/>
<path style="fill:#717171; stroke:none;" d="M66 45L67 46L66 45z"/>
<path style="fill:#4d4d4d; stroke:none;" d="M67 45L68 46L67 45M72 45L73 46L72 45z"/>
<path style="fill:#a4a4a4; stroke:none;" d="M73 45L74 46L73 45M80 45L81 46L80 45z"/>
<path style="fill:#4d4d4d; stroke:none;" d="M82 45L83 46L82 45z"/>
<path style="fill:#a4a4a4; stroke:none;" d="M19 46L20 47L19 46z"/>
<path style="fill:#717171; stroke:none;" d="M20 46L21 47L20 46z"/>
<path style="fill:#4d4d4d; stroke:none;" d="M21 46L22 47L21 46z"/>
<path style="fill:#a4a4a4; stroke:none;" d="M29 46L30 47L29 46z"/>
<path style="fill:#4d4d4d; stroke:none;" d="M70 46L71 47L70 46z"/>
<path style="fill:#a4a4a4; stroke:none;" d="M71 46L72 47L71 46M23 47L24 48L23 47z"/>
<path style="fill:#717171; stroke:none;" d="M24 47L25 48L24 47z"/>
<path style="fill:#4d4d4d; stroke:none;" d="M25 47L26 48L25 47M27 47L28 48L27 47z"/>
<path style="fill:#a4a4a4; stroke:none;" d="M28 47L29 48L28 47z"/>
<path style="fill:#4d4d4d; stroke:none;" d="M65 47L66 48L65 47z"/>
<path style="fill:#717171; stroke:none;" d="M68 47L69 48L68 47z"/>
<path style="fill:#a4a4a4; stroke:none;" d="M49 48L49 52L50 52L49 48z"/>
<path style="fill:#717171; stroke:none;" d="M65.3333 48.6667L65.6667 49.3333L65.3333 48.6667z"/>
<path style="fill:#a4a4a4; stroke:none;" d="M67 48L68 49L67 48z"/>
<path style="fill:#4d4d4d; stroke:none;" d="M81 48L82 49L81 48z"/>
<path style="fill:#a4a4a4; stroke:none;" d="M83 48L84 49L83 48z"/>
<path style="fill:#717171; stroke:none;" d="M67 49L68 50L67 49M81 49L82 50L81 49M83 49L84 50L83 49z"/>
<path style="fill:#a4a4a4; stroke:none;" d="M34 50L35 51L34 50M65 50L66 51L65 50z"/>
<path style="fill:#4d4d4d; stroke:none;" d="M67 50L68 51L67 50z"/>
<path style="fill:#a4a4a4; stroke:none;" d="M81.3333 50.6667L81.6667 51.3333L81.3333 50.6667z"/>
<path style="fill:#4d4d4d; stroke:none;" d="M83.3333 50.6667L83.6667 51.3333L83.3333 50.6667M34 51L35 52L34 51z"/>
<path style="fill:#717171; stroke:none;" d="M49.3333 52.6667L49.6667 53.3333L49.3333 52.6667M33 53L34 54L33 53z"/>
<path style="fill:#4d4d4d; stroke:none;" d="M66 53L67 54L66 53z"/>
<path style="fill:#a4a4a4; stroke:none;" d="M68.3333 53.6667L68.6667 54.3333L68.3333 53.6667z"/>
<path style="fill:#4d4d4d; stroke:none;" d="M82 53L83 54L82 53z"/>
<path style="fill:#a4a4a4; stroke:none;" d="M84.3333 53.6667L84.6667 54.3333L84.3333 53.6667z"/>
<path style="fill:#4d4d4d; stroke:none;" d="M33 54L34 55L33 54M49 54L49 57L50 57L49 54z"/>
<path style="fill:#717171; stroke:none;" d="M66 54L67 55L66 54z"/>
<path style="fill:#a4a4a4; stroke:none;" d="M80.6667 54.3333L81.3333 54.6667L80.6667 54.3333M32 55L33 56L32 55z"/>
<path style="fill:#4d4d4d; stroke:none;" d="M41 55L42 56L41 55z"/>
<path style="fill:#a4a4a4; stroke:none;" d="M66.3333 55.6667L66.6667 56.3333L66.3333 55.6667z"/>
<path style="fill:#717171; stroke:none;" d="M68 55L69 56L68 55z"/>
<path style="fill:#4d4d4d; stroke:none;" d="M79 55L80 56L79 55z"/>
<path style="fill:#717171; stroke:none;" d="M84 55L84 58L85 58L84 55z"/>
<path style="fill:#4d4d4d; stroke:none;" d="M32 56L33 57L32 56z"/>
<path style="fill:#a4a4a4; stroke:none;" d="M41 56L42 57L41 56z"/>
<path style="fill:#4d4d4d; stroke:none;" d="M68 56L69 57L68 56z"/>
<path style="fill:#717171; stroke:none;" d="M40 57L41 58L40 57z"/>
<path style="fill:#4d4d4d; stroke:none;" d="M77 57L78 58L77 57z"/>
<path style="fill:#717171; stroke:none;" d="M31 58L32 59L31 58z"/>
<path style="fill:#a4a4a4; stroke:none;" d="M40 58L41 59L40 58z"/>
<path style="fill:#4d4d4d; stroke:none;" d="M83 58L84 59L83 58M39 59L40 60L39 59M67 59L68 60L67 59z"/>
<path style="fill:#a4a4a4; stroke:none;" d="M69 59L70 60L69 59z"/>
<path style="fill:#4d4d4d; stroke:none;" d="M82 59L83 60L82 59z"/>
<path style="fill:#a4a4a4; stroke:none;" d="M30 60L31 61L30 60M39 60L40 61L39 60M50 60L50 65L51 65L50 60M65 60L66 61L65 60z"/>
<path style="fill:#4d4d4d; stroke:none;" d="M66 60L67 61L66 60z"/>
<path style="fill:#717171; stroke:none;" d="M69 60L70 61L69 60z"/>
<path style="fill:#4d4d4d; stroke:none;" d="M78 60L79 61L78 60M80 60L81 61L80 60z"/>
<path style="fill:#a4a4a4; stroke:none;" d="M81 60L82 61L81 60z"/>
<path style="fill:#4d4d4d; stroke:none;" d="M30 61L31 62L30 61M42.3333 61.6667L42.6667 62.3333L42.3333 61.6667z"/>
<path style="fill:#a4a4a4; stroke:none;" d="M63 61L64 62L63 61z"/>
<path style="fill:#4d4d4d; stroke:none;" d="M69.3333 61.6667L69.6667 62.3333L69.3333 61.6667z"/>
<path style="fill:#717171; stroke:none;" d="M38 62L39 63L38 62M29 63L30 64L29 63M42 63L42 66L43 66L42 63z"/>
<path style="fill:#4d4d4d; stroke:none;" d="M62 63L63 64L62 63z"/>
<path style="fill:#717171; stroke:none;" d="M69 63L70 64L69 63z"/>
<path style="fill:#4d4d4d; stroke:none;" d="M37 64L38 65L37 64M68 64L69 65L68 64z"/>
<path style="fill:#a4a4a4; stroke:none;" d="M28 65L29 66L28 65M37 65L38 66L37 65z"/>
<path style="fill:#717171; stroke:none;" d="M50 65L51 66L50 65M62 65L63 66L62 65z"/>
<path style="fill:#4d4d4d; stroke:none;" d="M67 65L68 66L67 65M28 66L29 67L28 66z"/>
<path style="fill:#a4a4a4; stroke:none;" d="M42 66L42 69L43 69L42 66z"/>
<path style="fill:#4d4d4d; stroke:none;" d="M50.3333 66.6667L50.6667 67.3333L50.3333 66.6667z"/>
<path style="fill:#a4a4a4; stroke:none;" d="M63 66L64 67L63 66z"/>
<path style="fill:#717171; stroke:none;" d="M64.6667 66.3333L65.3333 66.6667L64.6667 66.3333z"/>
<path style="fill:#a4a4a4; stroke:none;" d="M27 67L28 68L27 67z"/>
<path style="fill:#717171; stroke:none;" d="M36 67L37 68L36 67M27 68L28 69L27 68z"/>
<path style="fill:#4d4d4d; stroke:none;" d="M35 69L36 70L35 69M51 69L52 70L51 69z"/>
<path style="fill:#a4a4a4; stroke:none;" d="M35.3333 70.6667L35.6667 71.3333L35.3333 70.6667M52 70L53 71L52 70z"/>
<path style="fill:#717171; stroke:none;" d="M43 71L44 72L43 71z"/>
<path style="fill:#a4a4a4; stroke:none;" d="M53 71L54 72L53 71z"/>
<path style="fill:#717171; stroke:none;" d="M27 72L28 73L27 72z"/>
<path style="fill:#a4a4a4; stroke:none;" d="M27 73L28 74L27 73M44 73L45 74L44 73z"/>
<path style="fill:#4d4d4d; stroke:none;" d="M54 73L55 74L54 73z"/>
<path style="fill:#717171; stroke:none;" d="M36 74L37 75L36 74M45 74L46 75L45 74z"/>
<path style="fill:#a4a4a4; stroke:none;" d="M55 74L56 75L55 74z"/>
<path style="fill:#717171; stroke:none;" d="M28 75L29 76L28 75z"/>
<path style="fill:#4d4d4d; stroke:none;" d="M46 75L47 76L46 75z"/>
<path style="fill:#a4a4a4; stroke:none;" d="M37 76L38 77L37 76z"/>
<path style="fill:#4d4d4d; stroke:none;" d="M56 76L57 77L56 76M37 77L38 78L37 77z"/>
<path style="fill:#a4a4a4; stroke:none;" d="M47 77L48 78L47 77M57 77L58 78L57 77M29 78L30 79L29 78z"/>
<path style="fill:#4d4d4d; stroke:none;" d="M48 78L49 79L48 78z"/>
<path style="fill:#a4a4a4; stroke:none;" d="M58 78L59 79L58 78M38 79L39 80L38 79z"/>
<path style="fill:#717171; stroke:none;" d="M30 80L31 81L30 80z"/>
<path style="fill:#a4a4a4; stroke:none;" d="M49 80L50 81L49 80z"/>
<path style="fill:#4d4d4d; stroke:none;" d="M59 80L60 81L59 80z"/>
<path style="fill:#a4a4a4; stroke:none;" d="M30 81L31 82L30 81z"/>
<path style="fill:#717171; stroke:none;" d="M50 81L51 82L50 81z"/>
<path style="fill:#a4a4a4; stroke:none;" d="M60 81L61 82L60 81z"/>
<path style="fill:#717171; stroke:none;" d="M39 82L40 83L39 82z"/>
<path style="fill:#4d4d4d; stroke:none;" d="M51 82L52 83L51 82z"/>
<path style="fill:#717171; stroke:none;" d="M60 82L61 83L60 82M31 83L32 84L31 83z"/>
<path style="fill:#4d4d4d; stroke:none;" d="M60.3333 83.6667L60.6667 84.3333L60.3333 83.6667z"/>
<path style="fill:#a4a4a4; stroke:none;" d="M40 84L41 85L40 84M52 84L53 85L52 84z"/>
<path style="fill:#4d4d4d; stroke:none;" d="M40 85L41 86L40 85M53 85L54 86L53 85z"/>
<path style="fill:#a4a4a4; stroke:none;" d="M60 85L61 86L60 85M32 86L33 87L32 86z"/>
<path style="fill:#4d4d4d; stroke:none;" d="M54 86L55 87L54 86z"/>
<path style="fill:#717171; stroke:none;" d="M59 86L60 87L59 86z"/>
<path style="fill:#a4a4a4; stroke:none;" d="M55 87L55 88L58 88L55 87z"/>
<path style="fill:#717171; stroke:none;" d="M33 88L34 89L33 88z"/>
<path style="fill:#4d4d4d; stroke:none;" d="M40 88L41 89L40 88M34 89L35 90L34 89z"/>
<path style="fill:#a4a4a4; stroke:none;" d="M40 89L41 90L40 89z"/>
<path style="fill:#717171; stroke:none;" d="M35 90L36 91L35 90z"/>
<path style="fill:#4d4d4d; stroke:none;" d="M38 90L39 91L38 90z"/>
</svg>
