<?xml version="1.0" standalone="yes"?>
<svg xmlns="http://www.w3.org/2000/svg" width="96" height="96">
<path style="fill:#ffffff; stroke:none;" d="M0 0L0 96L96 96L96 0L0 0z"/>
<path style="fill:#a6a6a6; stroke:none;" d="M78 11L75 12L74 13L74 15L75 16L77 16L78 13L81 15L83 14L82 11L78 11z"/>
<path style="fill:#050505; stroke:none;" d="M79 11L79 13L81 13L81 11L79 11M75 13L75 15L77 15L77 13L75 13z"/>
<path style="fill:#ffffff; stroke:none;" d="M78 13L77 16L80 14L78 13M81 13L82 14L81 13z"/>
<path style="fill:#4b4b4b; stroke:none;" d="M83 13L84 14L83 13z"/>
<path style="fill:#050505; stroke:none;" d="M46 34C37.8905 33.0692 36.4313 41.005 31.787 45.892C26.429 51.5301 15.6129 51.2958 13.4483 60.0008C10.9851 69.9069 25.916 85.4418 35.9992 82.0664C43.8068 79.4527 43.2822 71.8515 46.9375 66.1049C49.9679 61.3407 55.47 60.4536 58 55C46.1151 52.284 51.8113 48.2713 58.9961 41C65.725 34.1901 72.6355 27.8768 79.3742 21.2052C82.3797 18.2298 85.7036 17.65 85 13C72.5076 18.1252 66.9719 25.913 57 34.5756C54.3969 36.8369 49.8454 42.9447 46.152 42.9444C41.3355 42.9441 45.088 35.8273 46 34z"/>
<path style="fill:#4b4b4b; stroke:none;" d="M85 13L86 14L85 13z"/>
<path style="fill:#a6a6a6; stroke:none;" d="M71 14L72 15L71 14z"/>
<path style="fill:#707070; stroke:none;" d="M72 14L74 16L72 14z"/>
<path style="fill:#4b4b4b; stroke:none;" d="M81 14L82 15L81 14z"/>
<path style="fill:#707070; stroke:none;" d="M86 14L87 15L86 14z"/>
<path style="fill:#050505; stroke:none;" d="M71 15L71 17L73 17L73 15L71 15z"/>
<path style="fill:#ffffff; stroke:none;" d="M74 15L74 17L76 17L74 15z"/>
<path style="fill:#707070; stroke:none;" d="M78 15L79 16L78 15z"/>
<path style="fill:#4b4b4b; stroke:none;" d="M79 15L80 16L79 15M86 15L87 16L86 15z"/>
<path style="fill:#a6a6a6; stroke:none;" d="M73.3333 16.6667L73.6667 17.3333L73.3333 16.6667z"/>
<path style="fill:#707070; stroke:none;" d="M76 16L77 17L76 16z"/>
<path style="fill:#a6a6a6; stroke:none;" d="M86 16L87 17L86 16z"/>
<path style="fill:#707070; stroke:none;" d="M74 17L75 18L74 17z"/>
<path style="fill:#a6a6a6; stroke:none;" d="M85 17L86 18L85 17M71 18L72 19L71 18z"/>
<path style="fill:#4b4b4b; stroke:none;" d="M72 18L73 19L72 18M82 18L83 19L82 18z"/>
<path style="fill:#a6a6a6; stroke:none;" d="M83 18L84 19L83 18M69 19L70 20L69 19z"/>
<path style="fill:#4b4b4b; stroke:none;" d="M70 19L71 20L70 19M80 19L81 20L80 19z"/>
<path style="fill:#a6a6a6; stroke:none;" d="M81 19L82 20L81 19z"/>
<path style="fill:#707070; stroke:none;" d="M69 20L70 21L69 20z"/>
<path style="fill:#4b4b4b; stroke:none;" d="M79 20L80 21L79 20M78 21L79 22L78 21z"/>
<path style="fill:#a6a6a6; stroke:none;" d="M68 22L69 23L68 22M78 22L79 23L78 22z"/>
<path style="fill:#707070; stroke:none;" d="M68 23L69 24L68 23M77 23L78 24L77 23z"/>
<path style="fill:#a6a6a6; stroke:none;" d="M67 24L68 25L67 24M66 25L67 26L66 25M76 25L77 26L76 25z"/>
<path style="fill:#707070; stroke:none;" d="M65 26L66 27L65 26z"/>
<path style="fill:#4b4b4b; stroke:none;" d="M73 26L74 27L73 26z"/>
<path style="fill:#a6a6a6; stroke:none;" d="M74 26L75 27L74 26z"/>
<path style="fill:#707070; stroke:none;" d="M64 27L65 28L64 27M71 27L72 28L71 27M63 28L64 29L63 28M70 28L71 29L70 28M62 29L63 30L62 29z"/>
<path style="fill:#4b4b4b; stroke:none;" d="M69 29L70 30L69 29M61 30L62 31L61 30M68 30L69 31L68 30M60 31L61 32L60 31M67 31L68 32L67 31M59 32L60 33L59 32M66 32L67 33L66 32z"/>
<path style="fill:#a6a6a6; stroke:none;" d="M41 33L42 34L41 33z"/>
<path style="fill:#4b4b4b; stroke:none;" d="M42 33L43 34L42 33z"/>
<path style="fill:#a6a6a6; stroke:none;" d="M45 33L46 34L45 33z"/>
<path style="fill:#4b4b4b; stroke:none;" d="M58 33L59 34L58 33M65 33L66 34L65 33z"/>
<path style="fill:#a6a6a6; stroke:none;" d="M39 34L40 35L39 34z"/>
<path style="fill:#4b4b4b; stroke:none;" d="M40 34L41 35L40 34M57 34L58 35L57 34z"/>
<path style="fill:#a6a6a6; stroke:none;" d="M38 35L39 36L38 35z"/>
<path style="fill:#707070; stroke:none;" d="M45 35L46 36L45 35z"/>
<path style="fill:#a6a6a6; stroke:none;" d="M64 35L65 36L64 35z"/>
<path style="fill:#4b4b4b; stroke:none;" d="M44 36L45 37L44 36z"/>
<path style="fill:#a6a6a6; stroke:none;" d="M54 36L55 37L54 36M63 36L64 37L63 36z"/>
<path style="fill:#4b4b4b; stroke:none;" d="M37 37L38 38L37 37z"/>
<path style="fill:#a6a6a6; stroke:none;" d="M53 37L54 38L53 37M62 37L63 38L62 37M36 38L37 39L36 38M43 38L44 39L43 38M52 38L53 39L52 38M61 38L62 39L61 38M51 39L52 40L51 39M60 39L61 40L60 39z"/>
<path style="fill:#707070; stroke:none;" d="M35 40L36 41L35 40z"/>
<path style="fill:#a6a6a6; stroke:none;" d="M50 40L51 41L50 40M59 40L60 41L59 40M49 41L50 42L49 41M58 41L59 42L58 41z"/>
<path style="fill:#707070; stroke:none;" d="M34 42L35 43L34 42z"/>
<path style="fill:#4b4b4b; stroke:none;" d="M43 42L44 43L43 42z"/>
<path style="fill:#a6a6a6; stroke:none;" d="M48 42L49 43L48 42M57 42L58 43L57 42M44 43L45 44L44 43M47 43L48 44L47 43z"/>
<path style="fill:#707070; stroke:none;" d="M56 43L57 44L56 43z"/>
<path style="fill:#4b4b4b; stroke:none;" d="M33 44L34 45L33 44M40 44L41 45L40 44z"/>
<path style="fill:#707070; stroke:none;" d="M45.6667 44.3333L46.3333 44.6667L45.6667 44.3333M55 44L56 45L55 44z"/>
<path style="fill:#a6a6a6; stroke:none;" d="M32 45L33 46L32 45z"/>
<path style="fill:#4b4b4b; stroke:none;" d="M38 45L39 46L38 45z"/>
<path style="fill:#ffffff; stroke:none;" d="M39 45L25.5818 58.0116L36 77L51 59L39 45z"/>
<path style="fill:#a6a6a6; stroke:none;" d="M41 45L42 46L41 45z"/>
<path style="fill:#707070; stroke:none;" d="M54 45L55 46L54 45z"/>
<path style="fill:#a6a6a6; stroke:none;" d="M31 46L32 47L31 46z"/>
<path style="fill:#707070; stroke:none;" d="M42 46L43 47L42 46M53 46L54 47L53 46z"/>
<path style="fill:#a6a6a6; stroke:none;" d="M30 47L31 48L30 47z"/>
<path style="fill:#707070; stroke:none;" d="M37 47L38 48L37 47M52 47L53 48L52 47M29 48L30 49L29 48M51 48L52 49L51 48z"/>
<path style="fill:#a6a6a6; stroke:none;" d="M25.6667 49.3333L26.3333 49.6667L25.6667 49.3333z"/>
<path style="fill:#4b4b4b; stroke:none;" d="M27 49L28 50L27 49z"/>
<path style="fill:#707070; stroke:none;" d="M36 49L37 50L36 49M43 49L44 50L43 49M50 49L51 50L50 49M23 50L24 51L23 50z"/>
<path style="fill:#4b4b4b; stroke:none;" d="M24 50L25 51L24 50z"/>
<path style="fill:#a6a6a6; stroke:none;" d="M35 50L36 51L35 50M43 50L44 51L43 50z"/>
<path style="fill:#4b4b4b; stroke:none;" d="M49 50L50 51L49 50z"/>
<path style="fill:#a6a6a6; stroke:none;" d="M20 51L21 52L20 51z"/>
<path style="fill:#707070; stroke:none;" d="M21 51L22 52L21 51z"/>
<path style="fill:#4b4b4b; stroke:none;" d="M31 51L32 52L31 51z"/>
<path style="fill:#707070; stroke:none;" d="M32 51L33 52L32 51z"/>
<path style="fill:#a6a6a6; stroke:none;" d="M33 51L34 52L33 51z"/>
<path style="fill:#4b4b4b; stroke:none;" d="M48 51L49 52L48 51z"/>
<path style="fill:#707070; stroke:none;" d="M19 52L20 53L19 52z"/>
<path style="fill:#a6a6a6; stroke:none;" d="M29 52L30 53L29 52M35 54L38 53L35 54z"/>
<path style="fill:#707070; stroke:none;" d="M44 52L45 53L44 52z"/>
<path style="fill:#a6a6a6; stroke:none;" d="M48 52L49 53L48 52M17 53L18 54L17 53z"/>
<path style="fill:#707070; stroke:none;" d="M27 53L28 54L27 53z"/>
<path style="fill:#050505; stroke:none;" d="M35 54L42 61C42.0673 56.5 39.5 53.9327 35 54z"/>
<path style="fill:#707070; stroke:none;" d="M38 53L39 54L38 53z"/>
<path style="fill:#a6a6a6; stroke:none;" d="M54 53L55 54L54 53z"/>
<path style="fill:#707070; stroke:none;" d="M55.6667 53.3333L56.3333 53.6667L55.6667 53.3333z"/>
<path style="fill:#a6a6a6; stroke:none;" d="M16 54L17 55L16 54z"/>
<path style="fill:#707070; stroke:none;" d="M26 54L27 55L26 54z"/>
<path style="fill:#4b4b4b; stroke:none;" d="M39 54L40 55L39 54z"/>
<path style="fill:#a6a6a6; stroke:none;" d="M45 54L46 55L45 54z"/>
<path style="fill:#707070; stroke:none;" d="M50 54L50 55L53 55L50 54z"/>
<path style="fill:#4b4b4b; stroke:none;" d="M53 54L54 55L53 54M57 54L58 55L57 54z"/>
<path style="fill:#707070; stroke:none;" d="M15 55L16 56L15 55z"/>
<path style="fill:#4b4b4b; stroke:none;" d="M25 55L26 56L25 55M35 55L38 58L35 55M40 55L41 56L40 55z"/>
<path style="fill:#707070; stroke:none;" d="M46 55L47 56L46 55z"/>
<path style="fill:#a6a6a6; stroke:none;" d="M14 56L15 57L14 56M25 56L26 57L25 56M35 56L36 57L35 56z"/>
<path style="fill:#707070; stroke:none;" d="M41 56L42 57L41 56M47 56L48 57L47 56z"/>
<path style="fill:#4b4b4b; stroke:none;" d="M53 56L54 57L53 56M57 56L58 57L57 56M24 57L24 60L25 60L24 57z"/>
<path style="fill:#a6a6a6; stroke:none;" d="M32 57L33 58L32 57M36 57L37 58L36 57z"/>
<path style="fill:#707070; stroke:none;" d="M42 57L43 58L42 57z"/>
<path style="fill:#a6a6a6; stroke:none;" d="M49 57L50 58L49 57z"/>
<path style="fill:#707070; stroke:none;" d="M50 57L51 58L50 57z"/>
<path style="fill:#a6a6a6; stroke:none;" d="M51 57L51 59L53 57L51 57z"/>
<path style="fill:#707070; stroke:none;" d="M53 57L54 58L53 57M57 57L58 58L57 57M13 58L14 59L13 58z"/>
<path style="fill:#a6a6a6; stroke:none;" d="M30 58L31 59L30 58z"/>
<path style="fill:#050505; stroke:none;" d="M30 59L37 66C37.0673 61.5 34.5 58.9327 30 59z"/>
<path style="fill:#4b4b4b; stroke:none;" d="M33 58L34 59L33 58M38 58L39 59L38 58z"/>
<path style="fill:#707070; stroke:none;" d="M43 58L44 59L43 58z"/>
<path style="fill:#4b4b4b; stroke:none;" d="M52 58L53 59L52 58M56 58L57 59L56 58M34 59L35 60L34 59M39 59L40 60L39 59M43 59L44 60L43 59z"/>
<path style="fill:#a6a6a6; stroke:none;" d="M49 59L50 60L49 59z"/>
<path style="fill:#4b4b4b; stroke:none;" d="M50 59L51 60L50 59z"/>
<path style="fill:#a6a6a6; stroke:none;" d="M56 59L57 60L56 59z"/>
<path style="fill:#4b4b4b; stroke:none;" d="M30 60L32 62L30 60M35 60L36 61L35 60M40 60L41 61L40 60M42 60L43 61L42 60z"/>
<path style="fill:#a6a6a6; stroke:none;" d="M47 60L48 61L47 60z"/>
<path style="fill:#4b4b4b; stroke:none;" d="M48 60L49 61L48 60z"/>
<path style="fill:#707070; stroke:none;" d="M54 60L55 61L54 60z"/>
<path style="fill:#a6a6a6; stroke:none;" d="M12.3333 61.6667L12.6667 62.3333L12.3333 61.6667z"/>
<path style="fill:#707070; stroke:none;" d="M25 61L26 62L25 61z"/>
<path style="fill:#a6a6a6; stroke:none;" d="M30 61L31 62L30 61z"/>
<path style="fill:#4b4b4b; stroke:none;" d="M36 61L37 62L36 61z"/>
<path style="fill:#a6a6a6; stroke:none;" d="M41 61L42 62L41 61z"/>
<path style="fill:#4b4b4b; stroke:none;" d="M46 61L47 62L46 61z"/>
<path style="fill:#707070; stroke:none;" d="M52 61L53 62L52 61z"/>
<path style="fill:#a6a6a6; stroke:none;" d="M53 61L54 62L53 61M26 62L27 63L26 62z"/>
<path style="fill:#4b4b4b; stroke:none;" d="M32 62L33 63L32 62M37 62L38 63L37 62M45 62L46 63L45 62z"/>
<path style="fill:#a6a6a6; stroke:none;" d="M50 62L51 63L50 62z"/>
<path style="fill:#4b4b4b; stroke:none;" d="M27 63L28 64L27 63M33 63L34 64L33 63M38.3333 63.6667L38.6667 64.3333L38.3333 63.6667z"/>
<path style="fill:#707070; stroke:none;" d="M44 63L45 64L44 63z"/>
<path style="fill:#a6a6a6; stroke:none;" d="M48 63L49 64L48 63M29 64L30 65L29 64z"/>
<path style="fill:#4b4b4b; stroke:none;" d="M34 64L35 65L34 64z"/>
<path style="fill:#a6a6a6; stroke:none;" d="M47 64L48 65L47 64z"/>
<path style="fill:#4b4b4b; stroke:none;" d="M13 65L14 66L13 65z"/>
<path style="fill:#707070; stroke:none;" d="M30 65L31 66L30 65z"/>
<path style="fill:#4b4b4b; stroke:none;" d="M35 65L36 66L35 65M37 65L38 66L37 65z"/>
<path style="fill:#a6a6a6; stroke:none;" d="M43.3333 65.6667L43.6667 66.3333L43.3333 65.6667z"/>
<path style="fill:#4b4b4b; stroke:none;" d="M46 65L47 66L46 65z"/>
<path style="fill:#a6a6a6; stroke:none;" d="M13 66L14 67L13 66z"/>
<path style="fill:#4b4b4b; stroke:none;" d="M31 66L32 67L31 66z"/>
<path style="fill:#a6a6a6; stroke:none;" d="M32 66L33 67L32 66M36 66L37 67L36 66z"/>
<path style="fill:#707070; stroke:none;" d="M46 66L47 67L46 66z"/>
<path style="fill:#a6a6a6; stroke:none;" d="M33 67L34 68L33 67z"/>
<path style="fill:#4b4b4b; stroke:none;" d="M43 67L44 68L43 67z"/>
<path style="fill:#a6a6a6; stroke:none;" d="M46 67L47 68L46 67z"/>
<path style="fill:#707070; stroke:none;" d="M14 68L15 69L14 68z"/>
<path style="fill:#a6a6a6; stroke:none;" d="M34 68L35 69L34 68z"/>
<path style="fill:#4b4b4b; stroke:none;" d="M34 69L35 70L34 69z"/>
<path style="fill:#a6a6a6; stroke:none;" d="M42 69L43 70L42 69z"/>
<path style="fill:#4b4b4b; stroke:none;" d="M45 69L46 70L45 69z"/>
<path style="fill:#a6a6a6; stroke:none;" d="M15 70L16 71L15 70M35 70L36 71L35 70z"/>
<path style="fill:#707070; stroke:none;" d="M42 70L43 71L42 70M45 70L46 71L45 70z"/>
<path style="fill:#4b4b4b; stroke:none;" d="M16 71L17 72L16 71M35.3333 71.6667L35.6667 72.3333L35.3333 71.6667z"/>
<path style="fill:#a6a6a6; stroke:none;" d="M45 71L46 72L45 71z"/>
<path style="fill:#4b4b4b; stroke:none;" d="M17 72L18 73L17 72z"/>
<path style="fill:#a6a6a6; stroke:none;" d="M41 72L42 73L41 72z"/>
<path style="fill:#707070; stroke:none;" d="M35.3333 73.6667L35.6667 74.3333L35.3333 73.6667z"/>
<path style="fill:#4b4b4b; stroke:none;" d="M41 73L42 74L41 73z"/>
<path style="fill:#707070; stroke:none;" d="M44 73L45 74L44 73z"/>
<path style="fill:#a6a6a6; stroke:none;" d="M18 74L19 75L18 74M40 74L41 75L40 74M19 75L20 76L19 75M35 75L36 76L35 75z"/>
<path style="fill:#707070; stroke:none;" d="M43 75L44 76L43 75z"/>
<path style="fill:#a6a6a6; stroke:none;" d="M20 76L21 77L20 76z"/>
<path style="fill:#707070; stroke:none;" d="M35 76L36 77L35 76M39 76L40 77L39 76z"/>
<path style="fill:#4b4b4b; stroke:none;" d="M22 77L23 78L22 77z"/>
<path style="fill:#a6a6a6; stroke:none;" d="M36.6667 77.3333L37.3333 77.6667L36.6667 77.3333z"/>
<path style="fill:#707070; stroke:none;" d="M38 77L39 78L38 77z"/>
<path style="fill:#a6a6a6; stroke:none;" d="M42 77L43 78L42 77z"/>
<path style="fill:#707070; stroke:none;" d="M23 78L24 79L23 78M41 78L42 79L41 78z"/>
<path style="fill:#a6a6a6; stroke:none;" d="M24 79L25 80L24 79z"/>
<path style="fill:#4b4b4b; stroke:none;" d="M40 79L41 80L40 79z"/>
<path style="fill:#a6a6a6; stroke:none;" d="M25 80L26 81L25 80z"/>
<path style="fill:#707070; stroke:none;" d="M26 80L27 81L26 80z"/>
<path style="fill:#4b4b4b; stroke:none;" d="M39 80L40 81L39 80z"/>
<path style="fill:#a6a6a6; stroke:none;" d="M27 81L28 82L27 81z"/>
<path style="fill:#707070; stroke:none;" d="M28 81L29 82L28 81z"/>
<path style="fill:#a6a6a6; stroke:none;" d="M38 81L39 82L38 81M29.6667 82.3333L30.3333 82.6667L29.6667 82.3333z"/>
<path style="fill:#4b4b4b; stroke:none;" d="M31 82L32 83L31 82M35 82L36 83L35 82z"/>
<path style="fill:#a6a6a6; stroke:none;" d="M36 82L37 83L36 82z"/>
</svg>
