<?xml version="1.0" standalone="yes"?>
<svg xmlns="http://www.w3.org/2000/svg" width="96" height="96">
<path style="fill:#fefefe; stroke:none;" d="M0 0L0 96L96 96L96 0L0 0z"/>
<path style="fill:#a7a7a7; stroke:none;" d="M57 7L57 8L61 8L57 7z"/>
<path style="fill:#707070; stroke:none;" d="M55 8L56 9L55 8z"/>
<path style="fill:#040404; stroke:none;" d="M56.1883 8.74614C47.7166 12.3483 53.099 25.8808 61.892 22.2539C70.3285 18.7739 64.8788 5.05094 56.1883 8.74614z"/>
<path style="fill:#707070; stroke:none;" d="M62 8L63 9L62 8z"/>
<path style="fill:#a7a7a7; stroke:none;" d="M53 9L52 11L53 9M64 9L65 10L64 9z"/>
<path style="fill:#494949; stroke:none;" d="M53 10L54 11L53 10z"/>
<path style="fill:#a7a7a7; stroke:none;" d="M65 10L66 11L65 10z"/>
<path style="fill:#494949; stroke:none;" d="M52 11L53 12L52 11M65 11L66 12L65 11z"/>
<path style="fill:#a7a7a7; stroke:none;" d="M51 12L52 13L51 12M66 12L67 13L66 12z"/>
<path style="fill:#707070; stroke:none;" d="M51 13L52 14L51 13M66 13L67 14L66 13z"/>
<path style="fill:#494949; stroke:none;" d="M51 14L52 15L51 14M66 14L67 15L66 14M51 16L52 17L51 16M66 16L67 17L66 16z"/>
<path style="fill:#707070; stroke:none;" d="M51 17L52 18L51 17M66 17L67 18L66 17z"/>
<path style="fill:#a7a7a7; stroke:none;" d="M51 18L52 19L51 18M66 18L67 19L66 18z"/>
<path style="fill:#494949; stroke:none;" d="M52 19L53 20L52 19M65 19L66 20L65 19z"/>
<path style="fill:#707070; stroke:none;" d="M42 20L43 21L42 20z"/>
<path style="fill:#494949; stroke:none;" d="M43 20L44 21L43 20z"/>
<path style="fill:#040404; stroke:none;" d="M38 42C40.2194 39.7624 44.5356 33.1366 48.0895 33.6312C55.5298 34.6666 62.1169 46.5364 71.5509 39.8218C73.5963 38.3659 73.5963 35.6341 71.5509 34.1782C68.5586 32.0485 64.3051 33.6154 61 32.3966C54.8375 30.1241 49.6181 18.0003 42.0394 21.3619C36.5049 23.8167 21.543 39.3758 27.4483 45.5008C31.5359 49.7404 39.8126 48.9715 42.9722 54.2245C45.3704 58.2116 40.9656 74.3642 47.9498 74.3642C53.1776 74.3642 51.9998 65.2287 52 62C52.0008 49.5636 49.4721 46.7066 38 42z"/>
<path style="fill:#494949; stroke:none;" d="M46 20L47 21L46 20z"/>
<path style="fill:#a7a7a7; stroke:none;" d="M47 20L48 21L47 20M52 20L53 21L52 20M65 20L66 21L65 20M40 21L41 22L40 21z"/>
<path style="fill:#707070; stroke:none;" d="M48 21L49 22L48 21z"/>
<path style="fill:#a7a7a7; stroke:none;" d="M53 21L54 22L53 21M64 21L65 22L64 21M39 22L40 23L39 22z"/>
<path style="fill:#494949; stroke:none;" d="M49 22L50 23L49 22z"/>
<path style="fill:#707070; stroke:none;" d="M55 22L56 23L55 22M62 22L63 23L62 22z"/>
<path style="fill:#a7a7a7; stroke:none;" d="M38 23L39 24L38 23z"/>
<path style="fill:#494949; stroke:none;" d="M50 23L51 24L50 23z"/>
<path style="fill:#a7a7a7; stroke:none;" d="M57 23L57 24L61 24L57 23z"/>
<path style="fill:#494949; stroke:none;" d="M51 24L52 25L51 24M37 25L38 26L37 25M52 25L53 26L52 25M36 26L37 27L36 26M53 26L54 27L53 26M35 27L36 28L35 27M54 27L55 28L54 27z"/>
<path style="fill:#707070; stroke:none;" d="M34 28L35 29L34 28z"/>
<path style="fill:#494949; stroke:none;" d="M55 28L56 29L55 28z"/>
<path style="fill:#a7a7a7; stroke:none;" d="M33 29L34 30L33 29z"/>
<path style="fill:#494949; stroke:none;" d="M56 29L57 30L56 29z"/>
<path style="fill:#a7a7a7; stroke:none;" d="M32 30L33 31L32 30z"/>
<path style="fill:#494949; stroke:none;" d="M57 30L58 31L57 30z"/>
<path style="fill:#a7a7a7; stroke:none;" d="M31 31L32 32L31 31z"/>
<path style="fill:#494949; stroke:none;" d="M58 31L59 32L58 31z"/>
<path style="fill:#a7a7a7; stroke:none;" d="M30 32L31 33L30 32z"/>
<path style="fill:#494949; stroke:none;" d="M46 32L47 33L46 32z"/>
<path style="fill:#707070; stroke:none;" d="M48 32L49 33L48 32z"/>
<path style="fill:#494949; stroke:none;" d="M59 32L60 33L59 32M30 33L31 34L30 33M45 33L46 34L45 33z"/>
<path style="fill:#707070; stroke:none;" d="M49 33L50 34L49 33M71 33L72 34L71 33z"/>
<path style="fill:#494949; stroke:none;" d="M29 34L30 35L29 34z"/>
<path style="fill:#707070; stroke:none;" d="M50 34L51 35L50 34z"/>
<path style="fill:#494949; stroke:none;" d="M28 35L29 36L28 35z"/>
<path style="fill:#a7a7a7; stroke:none;" d="M44 35L45 36L44 35z"/>
<path style="fill:#707070; stroke:none;" d="M51 35L52 36L51 35M73 35L74 36L73 35M27 36L28 37L27 36z"/>
<path style="fill:#a7a7a7; stroke:none;" d="M43 36L44 37L43 36z"/>
<path style="fill:#707070; stroke:none;" d="M52 36L53 37L52 36z"/>
<path style="fill:#a7a7a7; stroke:none;" d="M26 37L27 38L26 37M42 37L43 38L42 37z"/>
<path style="fill:#707070; stroke:none;" d="M53 37L54 38L53 37M41 38L42 39L41 38M54 38L55 39L54 38z"/>
<path style="fill:#494949; stroke:none;" d="M73 38L74 39L73 38z"/>
<path style="fill:#707070; stroke:none;" d="M25 39L26 40L25 39M40 39L41 40L40 39M55 39L56 40L55 39z"/>
<path style="fill:#a7a7a7; stroke:none;" d="M73 39L74 40L73 39z"/>
<path style="fill:#494949; stroke:none;" d="M25 40L26 41L25 40M39 40L40 41L39 40z"/>
<path style="fill:#a7a7a7; stroke:none;" d="M56 40L57 41L56 40z"/>
<path style="fill:#494949; stroke:none;" d="M57 40L58 41L57 40M71 40L72 41L71 40M38 41L39 42L38 41z"/>
<path style="fill:#707070; stroke:none;" d="M39 42L40 43L39 42M25 43L26 44L25 43z"/>
<path style="fill:#494949; stroke:none;" d="M41 43L42 44L41 43z"/>
<path style="fill:#a7a7a7; stroke:none;" d="M42 43L43 44L42 43z"/>
<path style="fill:#494949; stroke:none;" d="M43 44L44 45L43 44z"/>
<path style="fill:#a7a7a7; stroke:none;" d="M44 44L45 45L44 44M26 45L27 46L26 45z"/>
<path style="fill:#707070; stroke:none;" d="M46 45L47 46L46 45z"/>
<path style="fill:#a7a7a7; stroke:none;" d="M27 46L28 47L27 46z"/>
<path style="fill:#494949; stroke:none;" d="M48 46L49 47L48 46z"/>
<path style="fill:#a7a7a7; stroke:none;" d="M49 46L50 47L49 46M29 47L30 48L29 47z"/>
<path style="fill:#494949; stroke:none;" d="M30 47L31 48L30 47z"/>
<path style="fill:#a7a7a7; stroke:none;" d="M50 47L51 48L50 47M31 48L32 49L31 48z"/>
<path style="fill:#707070; stroke:none;" d="M32 48L33 49L32 48z"/>
<path style="fill:#a7a7a7; stroke:none;" d="M51 48L52 49L51 48M34 49L35 50L34 49z"/>
<path style="fill:#494949; stroke:none;" d="M35 49L36 50L35 49M51 49L52 50L51 49z"/>
<path style="fill:#a7a7a7; stroke:none;" d="M36 50L37 51L36 50z"/>
<path style="fill:#707070; stroke:none;" d="M37 50L38 51L37 50z"/>
<path style="fill:#a7a7a7; stroke:none;" d="M39 51L40 52L39 51z"/>
<path style="fill:#494949; stroke:none;" d="M40 51L41 52L40 51z"/>
<path style="fill:#a7a7a7; stroke:none;" d="M41 52L42 53L41 52z"/>
<path style="fill:#707070; stroke:none;" d="M42 52L43 53L42 52z"/>
<path style="fill:#a7a7a7; stroke:none;" d="M20 54L20 55L26 55L20 54M70 54L70 55L76 55L70 54M16 55L17 56L16 55z"/>
<path style="fill:#707070; stroke:none;" d="M17 55L18 56L17 55z"/>
<path style="fill:#494949; stroke:none;" d="M18 55L19 56L18 55z"/>
<path style="fill:#040404; stroke:none;" d="M19 55.5324C-1.6813 60.434 6.10339 92.4458 27 87.4676C47.9206 82.4837 39.9459 50.5681 19 55.5324z"/>
<path style="fill:#494949; stroke:none;" d="M27 55L28 56L27 55z"/>
<path style="fill:#707070; stroke:none;" d="M28 55L29 56L28 55z"/>
<path style="fill:#a7a7a7; stroke:none;" d="M66 55L67 56L66 55z"/>
<path style="fill:#707070; stroke:none;" d="M67 55L68 56L67 55z"/>
<path style="fill:#494949; stroke:none;" d="M68 55L69 56L68 55z"/>
<path style="fill:#040404; stroke:none;" d="M69 55.5324C48.3187 60.434 56.1034 92.4458 77 87.4676C97.9206 82.4837 89.9459 50.5681 69 55.5324z"/>
<path style="fill:#494949; stroke:none;" d="M77 55L78 56L77 55z"/>
<path style="fill:#707070; stroke:none;" d="M78 55L79 56L78 55z"/>
<path style="fill:#a7a7a7; stroke:none;" d="M14 56L15 57L14 56z"/>
<path style="fill:#707070; stroke:none;" d="M15 56L16 57L15 56M30 56L31 57L30 56z"/>
<path style="fill:#a7a7a7; stroke:none;" d="M64 56L65 57L64 56z"/>
<path style="fill:#707070; stroke:none;" d="M65 56L66 57L65 56M80 56L81 57L80 56M13 57L14 58L13 57M32 57L33 58L32 57M63 57L64 58L63 57M82 57L83 58L82 57z"/>
<path style="fill:#494949; stroke:none;" d="M12 58L13 59L12 58M20.6667 58.3333L21.3333 58.6667L20.6667 58.3333z"/>
<path style="fill:#707070; stroke:none;" d="M22.6667 58.3333L23.3333 58.6667L22.6667 58.3333z"/>
<path style="fill:#494949; stroke:none;" d="M24.6667 58.3333L25.3333 58.6667L24.6667 58.3333M33 58L34 59L33 58M62 58L63 59L62 58M70.6667 58.3333L71.3333 58.6667L70.6667 58.3333z"/>
<path style="fill:#707070; stroke:none;" d="M72.6667 58.3333L73.3333 58.6667L72.6667 58.3333z"/>
<path style="fill:#494949; stroke:none;" d="M74.6667 58.3333L75.3333 58.6667L74.6667 58.3333M83 58L84 59L83 58M17 59L18 60L17 59z"/>
<path style="fill:#a7a7a7; stroke:none;" d="M18 59L19 60L18 59z"/>
<path style="fill:#fefefe; stroke:none;" d="M19.0039 59.6528C3.57961 64.5231 11.4862 88.2107 26.9992 83.3472C42.5792 78.4628 34.5352 54.7487 19.0039 59.6528z"/>
<path style="fill:#a7a7a7; stroke:none;" d="M27 59L28 60L27 59z"/>
<path style="fill:#494949; stroke:none;" d="M28 59L29 60L28 59M67 59L68 60L67 59z"/>
<path style="fill:#a7a7a7; stroke:none;" d="M68 59L69 60L68 59z"/>
<path style="fill:#fefefe; stroke:none;" d="M69.0039 59.6528C53.5796 64.5231 61.4862 88.2107 76.9992 83.3472C92.5792 78.4628 84.5352 54.7487 69.0039 59.6528z"/>
<path style="fill:#a7a7a7; stroke:none;" d="M77 59L78 60L77 59z"/>
<path style="fill:#494949; stroke:none;" d="M78 59L79 60L78 59M10 60L11 61L10 60M15 60L16 61L15 60z"/>
<path style="fill:#a7a7a7; stroke:none;" d="M16 60L17 61L16 60M29 60L30 61L29 60z"/>
<path style="fill:#494949; stroke:none;" d="M60 60L61 61L60 60M65 60L66 61L65 60z"/>
<path style="fill:#a7a7a7; stroke:none;" d="M66 60L67 61L66 60M79 60L80 61L79 60z"/>
<path style="fill:#707070; stroke:none;" d="M9 61L10 62L9 61z"/>
<path style="fill:#494949; stroke:none;" d="M14 61L15 62L14 61M31 61L32 62L31 61M36 61L37 62L36 61z"/>
<path style="fill:#707070; stroke:none;" d="M59 61L60 62L59 61z"/>
<path style="fill:#494949; stroke:none;" d="M64 61L65 62L64 61M81 61L82 62L81 61M86 61L87 62L86 61z"/>
<path style="fill:#a7a7a7; stroke:none;" d="M8 62L9 63L8 62z"/>
<path style="fill:#707070; stroke:none;" d="M13 62L14 63L13 62M32 62L33 63L32 62z"/>
<path style="fill:#a7a7a7; stroke:none;" d="M37 62L38 63L37 62M58 62L59 63L58 62z"/>
<path style="fill:#707070; stroke:none;" d="M63 62L64 63L63 62M82 62L83 63L82 62z"/>
<path style="fill:#a7a7a7; stroke:none;" d="M87 62L88 63L87 62z"/>
<path style="fill:#494949; stroke:none;" d="M8 63L9 64L8 63M12 63L13 64L12 63M33 63L34 64L33 63M58 63L59 64L58 63M62 63L63 64L62 63M83 63L84 64L83 63z"/>
<path style="fill:#a7a7a7; stroke:none;" d="M7 64L8 65L7 64M12 64L13 65L12 64z"/>
<path style="fill:#707070; stroke:none;" d="M38 64L39 65L38 64z"/>
<path style="fill:#a7a7a7; stroke:none;" d="M57 64L58 65L57 64M62 64L63 65L62 64z"/>
<path style="fill:#707070; stroke:none;" d="M88 64L89 65L88 64z"/>
<path style="fill:#494949; stroke:none;" d="M7 65L8 66L7 65z"/>
<path style="fill:#707070; stroke:none;" d="M11 65L12 66L11 65M34 65L35 66L34 65z"/>
<path style="fill:#494949; stroke:none;" d="M57 65L58 66L57 65z"/>
<path style="fill:#707070; stroke:none;" d="M61 65L62 66L61 65M84 65L85 66L84 65z"/>
<path style="fill:#a7a7a7; stroke:none;" d="M6.33333 66.6667L6.66667 67.3333L6.33333 66.6667M56.3333 66.6667L56.6667 67.3333L56.3333 66.6667z"/>
<path style="fill:#494949; stroke:none;" d="M10 67L11 68L10 67z"/>
<path style="fill:#707070; stroke:none;" d="M35 67L36 68L35 67z"/>
<path style="fill:#a7a7a7; stroke:none;" d="M39 67L40 68L39 67z"/>
<path style="fill:#494949; stroke:none;" d="M60 67L61 68L60 67z"/>
<path style="fill:#707070; stroke:none;" d="M85 67L86 68L85 67z"/>
<path style="fill:#a7a7a7; stroke:none;" d="M89 67L90 68L89 67z"/>
<path style="fill:#494949; stroke:none;" d="M6.33333 68.6667L6.66667 69.3333L6.33333 68.6667z"/>
<path style="fill:#707070; stroke:none;" d="M10 68L11 69L10 68z"/>
<path style="fill:#a7a7a7; stroke:none;" d="M35 68L36 69L35 68z"/>
<path style="fill:#494949; stroke:none;" d="M39 68L40 69L39 68M56.3333 68.6667L56.6667 69.3333L56.3333 68.6667z"/>
<path style="fill:#707070; stroke:none;" d="M60 68L61 69L60 68z"/>
<path style="fill:#a7a7a7; stroke:none;" d="M85 68L86 69L85 68z"/>
<path style="fill:#494949; stroke:none;" d="M89 68L90 69L89 68z"/>
<path style="fill:#a7a7a7; stroke:none;" d="M10 69L11 70L10 69M60 69L61 70L60 69z"/>
<path style="fill:#494949; stroke:none;" d="M51 72L52 73L51 72M6.33333 73.6667L6.66667 74.3333L6.33333 73.6667z"/>
<path style="fill:#a7a7a7; stroke:none;" d="M10.3333 73.6667L10.6667 74.3333L10.3333 73.6667M35.3333 73.6667L35.6667 74.3333L35.3333 73.6667z"/>
<path style="fill:#494949; stroke:none;" d="M39.3333 73.6667L39.6667 74.3333L39.3333 73.6667z"/>
<path style="fill:#a7a7a7; stroke:none;" d="M44 73L45 74L44 73M51 73L52 74L51 73z"/>
<path style="fill:#494949; stroke:none;" d="M56.3333 73.6667L56.6667 74.3333L56.3333 73.6667z"/>
<path style="fill:#a7a7a7; stroke:none;" d="M60.3333 73.6667L60.6667 74.3333L60.3333 73.6667M85.3333 73.6667L85.6667 74.3333L85.3333 73.6667z"/>
<path style="fill:#494949; stroke:none;" d="M89.3333 73.6667L89.6667 74.3333L89.3333 73.6667z"/>
<path style="fill:#707070; stroke:none;" d="M45 74L46 75L45 74z"/>
<path style="fill:#a7a7a7; stroke:none;" d="M50 74L51 75L50 74z"/>
<path style="fill:#707070; stroke:none;" d="M6 75L7 76L6 75z"/>
<path style="fill:#494949; stroke:none;" d="M10 75L11 76L10 75M35 75L36 76L35 75z"/>
<path style="fill:#707070; stroke:none;" d="M39 75L40 76L39 75z"/>
<path style="fill:#a7a7a7; stroke:none;" d="M47.6667 75.3333L48.3333 75.6667L47.6667 75.3333z"/>
<path style="fill:#707070; stroke:none;" d="M56 75L57 76L56 75z"/>
<path style="fill:#494949; stroke:none;" d="M60 75L61 76L60 75M85 75L86 76L85 75z"/>
<path style="fill:#707070; stroke:none;" d="M89 75L90 76L89 75z"/>
<path style="fill:#a7a7a7; stroke:none;" d="M39 76L40 77L39 76M89 76L90 77L89 76z"/>
<path style="fill:#707070; stroke:none;" d="M11 77L12 78L11 77M34 77L35 78L34 77M61 77L62 78L61 77M84 77L85 78L84 77z"/>
<path style="fill:#a7a7a7; stroke:none;" d="M7 78L8 79L7 78z"/>
<path style="fill:#707070; stroke:none;" d="M38 78L39 79L38 78z"/>
<path style="fill:#a7a7a7; stroke:none;" d="M57 78L58 79L57 78z"/>
<path style="fill:#707070; stroke:none;" d="M88 78L89 79L88 78z"/>
<path style="fill:#494949; stroke:none;" d="M12 79L13 80L12 79M33 79L34 80L33 79M62 79L63 80L62 79M83 79L84 80L83 79z"/>
<path style="fill:#a7a7a7; stroke:none;" d="M8 80L9 81L8 80z"/>
<path style="fill:#494949; stroke:none;" d="M13 80L14 81L13 80z"/>
<path style="fill:#707070; stroke:none;" d="M32 80L33 81L32 80z"/>
<path style="fill:#a7a7a7; stroke:none;" d="M37 80L38 81L37 80M58 80L59 81L58 80z"/>
<path style="fill:#494949; stroke:none;" d="M63 80L64 81L63 80z"/>
<path style="fill:#707070; stroke:none;" d="M82 80L83 81L82 80z"/>
<path style="fill:#a7a7a7; stroke:none;" d="M87 80L88 81L87 80z"/>
<path style="fill:#494949; stroke:none;" d="M9 81L10 82L9 81M14 81L15 82L14 81z"/>
<path style="fill:#707070; stroke:none;" d="M31 81L32 82L31 81z"/>
<path style="fill:#494949; stroke:none;" d="M36 81L37 82L36 81M59 81L60 82L59 81M64 81L65 82L64 81z"/>
<path style="fill:#707070; stroke:none;" d="M81 81L82 82L81 81z"/>
<path style="fill:#494949; stroke:none;" d="M86 81L87 82L86 81M10 82L11 83L10 82M15 82L16 83L15 82z"/>
<path style="fill:#a7a7a7; stroke:none;" d="M16 82L17 83L16 82M29 82L30 83L29 82z"/>
<path style="fill:#494949; stroke:none;" d="M30 82L31 83L30 82M35 82L36 83L35 82M60 82L61 83L60 82M65 82L66 83L65 82z"/>
<path style="fill:#a7a7a7; stroke:none;" d="M66 82L67 83L66 82M79 82L80 83L79 82z"/>
<path style="fill:#494949; stroke:none;" d="M80 82L81 83L80 82M85 82L86 83L85 82M17 83L18 84L17 83z"/>
<path style="fill:#a7a7a7; stroke:none;" d="M18 83L19 84L18 83M27 83L28 84L27 83z"/>
<path style="fill:#494949; stroke:none;" d="M28 83L29 84L28 83z"/>
<path style="fill:#a7a7a7; stroke:none;" d="M35 83L36 84L35 83z"/>
<path style="fill:#494949; stroke:none;" d="M67 83L68 84L67 83z"/>
<path style="fill:#a7a7a7; stroke:none;" d="M68 83L69 84L68 83M77 83L78 84L77 83z"/>
<path style="fill:#494949; stroke:none;" d="M78 83L79 84L78 83z"/>
<path style="fill:#a7a7a7; stroke:none;" d="M85 83L86 84L85 83z"/>
<path style="fill:#494949; stroke:none;" d="M12 84L13 85L12 84M20 84L21 85L20 84z"/>
<path style="fill:#707070; stroke:none;" d="M21 84L21 85L25 85L21 84z"/>
<path style="fill:#494949; stroke:none;" d="M25 84L26 85L25 84M33 84L34 85L33 84M62 84L63 85L62 84M70 84L71 85L70 84z"/>
<path style="fill:#707070; stroke:none;" d="M71 84L71 85L75 85L71 84z"/>
<path style="fill:#494949; stroke:none;" d="M75 84L76 85L75 84M83 84L84 85L83 84z"/>
<path style="fill:#707070; stroke:none;" d="M13 85L14 86L13 85M32 85L33 86L32 85M63 85L64 86L63 85M82 85L83 86L82 85z"/>
<path style="fill:#a7a7a7; stroke:none;" d="M14 86L15 87L14 86z"/>
<path style="fill:#707070; stroke:none;" d="M15 86L16 87L15 86z"/>
<path style="fill:#494949; stroke:none;" d="M30 86L31 87L30 86z"/>
<path style="fill:#a7a7a7; stroke:none;" d="M31 86L32 87L31 86M64 86L65 87L64 86z"/>
<path style="fill:#707070; stroke:none;" d="M65 86L66 87L65 86z"/>
<path style="fill:#494949; stroke:none;" d="M80 86L81 87L80 86z"/>
<path style="fill:#a7a7a7; stroke:none;" d="M81 86L82 87L81 86M16 87L17 88L16 87z"/>
<path style="fill:#707070; stroke:none;" d="M17 87L18 88L17 87z"/>
<path style="fill:#494949; stroke:none;" d="M27 87L28 88L27 87z"/>
<path style="fill:#707070; stroke:none;" d="M28 87L29 88L28 87z"/>
<path style="fill:#a7a7a7; stroke:none;" d="M29 87L30 88L29 87M66 87L67 88L66 87z"/>
<path style="fill:#707070; stroke:none;" d="M67 87L68 88L67 87z"/>
<path style="fill:#494949; stroke:none;" d="M77 87L78 88L77 87z"/>
<path style="fill:#707070; stroke:none;" d="M78 87L79 88L78 87z"/>
<path style="fill:#a7a7a7; stroke:none;" d="M79 87L80 88L79 87M20.6667 88.3333L21.3333 88.6667L20.6667 88.3333z"/>
<path style="fill:#707070; stroke:none;" d="M22 88L23 89L22 88z"/>
<path style="fill:#a7a7a7; stroke:none;" d="M23 88L23 89L27 89L23 88M70.6667 88.3333L71.3333 88.6667L70.6667 88.3333z"/>
<path style="fill:#707070; stroke:none;" d="M72 88L73 89L72 88z"/>
<path style="fill:#a7a7a7; stroke:none;" d="M73 88L73 89L77 89L73 88z"/>
</svg>
