<?xml version="1.0" standalone="yes"?>
<svg xmlns="http://www.w3.org/2000/svg" width="96" height="96">
<path style="fill:#ffffff; stroke:none;" d="M0 0L0 96L96 96L96 0L0 0z"/>
<path style="fill:#a5a5a5; stroke:none;" d="M76 7L77 8L76 7z"/>
<path style="fill:#2c2c2c; stroke:none;" d="M75.3333 8.66666L75.6667 9.33334L75.3333 8.66666z"/>
<path style="fill:#020202; stroke:none;" d="M76.3333 8.66666L76.6667 9.33334L76.3333 8.66666z"/>
<path style="fill:#626262; stroke:none;" d="M77.3333 8.66666L77.6667 9.33334L77.3333 8.66666z"/>
<path style="fill:#a5a5a5; stroke:none;" d="M80 8L78 11L80 8z"/>
<path style="fill:#020202; stroke:none;" d="M80 9C71.9746 19.5821 61.0706 37.0514 48 41.9823C44.2702 43.3893 40.9134 39.5795 37.044 40.3619C32.4306 41.2947 32.0274 46.7965 28.7755 49.436C23.1743 53.9823 15.4264 51.3415 10.7029 58.044C1.1991 71.5296 22.9357 94.759 36.9846 86.142C44.7948 81.3515 41.6908 73.253 46.5887 67.2778C49.3176 63.9487 54.6765 63.8512 55.6381 58.9815C56.4162 55.0412 52.1105 51.3557 53.9668 47.7145C60.6165 34.671 76.3874 28.6026 84.6273 17.8264C87.9013 13.5447 83.7186 10.511 80 9z"/>
<path style="fill:#626262; stroke:none;" d="M82 9L83 10L82 9z"/>
<path style="fill:#a5a5a5; stroke:none;" d="M76 10L77 11L76 10z"/>
<path style="fill:#2c2c2c; stroke:none;" d="M83 10L84 11L83 10M72 11L73 12L72 11z"/>
<path style="fill:#626262; stroke:none;" d="M73 11L74 12L73 11z"/>
<path style="fill:#2c2c2c; stroke:none;" d="M78 11L79 12L78 11z"/>
<path style="fill:#a5a5a5; stroke:none;" d="M85 11L86 12L85 11z"/>
<path style="fill:#626262; stroke:none;" d="M71 12L72 13L71 12z"/>
<path style="fill:#020202; stroke:none;" d="M72 12L72 14L74 12L72 12z"/>
<path style="fill:#a5a5a5; stroke:none;" d="M74 12L75 13L74 12z"/>
<path style="fill:#2c2c2c; stroke:none;" d="M77 12L78 13L77 12M85 12L86 13L85 12z"/>
<path style="fill:#a5a5a5; stroke:none;" d="M71 13L72 14L71 13z"/>
<path style="fill:#2c2c2c; stroke:none;" d="M73 13L74 14L73 13z"/>
<path style="fill:#626262; stroke:none;" d="M76 13L77 14L76 13M86 13L87 14L86 13M75 14L76 15L75 14z"/>
<path style="fill:#a5a5a5; stroke:none;" d="M87 14L88 15L87 14M74 15L75 16L74 15z"/>
<path style="fill:#626262; stroke:none;" d="M87 15L88 16L87 15z"/>
<path style="fill:#a5a5a5; stroke:none;" d="M73 16L74 17L73 16z"/>
<path style="fill:#626262; stroke:none;" d="M86 16L87 17L86 16z"/>
<path style="fill:#a5a5a5; stroke:none;" d="M72 17L73 18L72 17M85 17L85 20L86 20L85 17z"/>
<path style="fill:#2c2c2c; stroke:none;" d="M72.3333 18.6667L72.6667 19.3333L72.3333 18.6667z"/>
<path style="fill:#ffffff; stroke:none;" d="M85 18L86 19L85 18z"/>
<path style="fill:#626262; stroke:none;" d="M86.6667 18.3333L87.3333 18.6667L86.6667 18.3333z"/>
<path style="fill:#a5a5a5; stroke:none;" d="M83 19L84 20L83 19z"/>
<path style="fill:#020202; stroke:none;" d="M86.6667 19.3333L87.3333 19.6667L86.6667 19.3333z"/>
<path style="fill:#a5a5a5; stroke:none;" d="M88 19L89 20L88 19z"/>
<path style="fill:#626262; stroke:none;" d="M72 20L73 21L72 20z"/>
<path style="fill:#2c2c2c; stroke:none;" d="M81 20L82 21L81 20M86.6667 20.3333L87.3333 20.6667L86.6667 20.3333z"/>
<path style="fill:#626262; stroke:none;" d="M71 21L72 22L71 21z"/>
<path style="fill:#2c2c2c; stroke:none;" d="M80 21L81 22L80 21z"/>
<path style="fill:#626262; stroke:none;" d="M70 22L71 23L70 22M79 22L80 23L79 22M82 22L83 23L82 22z"/>
<path style="fill:#020202; stroke:none;" d="M83 22L82 24L84 24L83 22z"/>
<path style="fill:#626262; stroke:none;" d="M84 22L85 23L84 22M69 23L70 24L69 23z"/>
<path style="fill:#2c2c2c; stroke:none;" d="M75 23L75 24L78 24L75 23z"/>
<path style="fill:#a5a5a5; stroke:none;" d="M78 23L79 24L78 23z"/>
<path style="fill:#2c2c2c; stroke:none;" d="M84 23L85 24L84 23z"/>
<path style="fill:#626262; stroke:none;" d="M68 24L69 25L68 24z"/>
<path style="fill:#2c2c2c; stroke:none;" d="M74 24L75 25L74 24z"/>
<path style="fill:#a5a5a5; stroke:none;" d="M82 24L83 25L82 24z"/>
<path style="fill:#626262; stroke:none;" d="M83 24L84 25L83 24z"/>
<path style="fill:#a5a5a5; stroke:none;" d="M84 24L85 25L84 24z"/>
<path style="fill:#2c2c2c; stroke:none;" d="M67 25L68 26L67 25M73 25L74 26L73 25z"/>
<path style="fill:#a5a5a5; stroke:none;" d="M65 26L66 27L65 26z"/>
<path style="fill:#2c2c2c; stroke:none;" d="M66 26L67 27L66 26M72 26L73 27L72 26z"/>
<path style="fill:#a5a5a5; stroke:none;" d="M64 27L65 28L64 27M72 27L73 28L72 27M63 28L64 29L63 28M71 28L72 29L71 28M62 29L63 30L62 29M70 29L71 30L70 29M61 30L62 31L61 30M69 30L70 31L69 30z"/>
<path style="fill:#626262; stroke:none;" d="M60 31L61 32L60 31M68 31L69 32L68 31M59 32L60 33L59 32M67 32L68 33L67 32M58 33L59 34L58 33M66 33L67 34L66 33M57 34L58 35L57 34M65 34L66 35L65 34z"/>
<path style="fill:#2c2c2c; stroke:none;" d="M56 35L57 36L56 35M64 35L65 36L64 35z"/>
<path style="fill:#a5a5a5; stroke:none;" d="M54 36L55 37L54 36z"/>
<path style="fill:#2c2c2c; stroke:none;" d="M55 36L56 37L55 36M63 36L64 37L63 36z"/>
<path style="fill:#a5a5a5; stroke:none;" d="M53 37L54 38L53 37M52 38L53 39L52 38M62 38L63 39L62 38M36 39L37 40L36 39z"/>
<path style="fill:#626262; stroke:none;" d="M37.6667 39.3333L38.3333 39.6667L37.6667 39.3333z"/>
<path style="fill:#a5a5a5; stroke:none;" d="M39 39L40 40L39 39M51 39L52 40L51 39M61 39L62 40L61 39M34 40L35 41L34 40z"/>
<path style="fill:#626262; stroke:none;" d="M41 40L42 41L41 40z"/>
<path style="fill:#a5a5a5; stroke:none;" d="M50 40L51 41L50 40M60 40L61 41L60 40z"/>
<path style="fill:#626262; stroke:none;" d="M33 41L34 42L33 41M43 41L44 42L43 41M49 41L50 42L49 41z"/>
<path style="fill:#a5a5a5; stroke:none;" d="M59 41L60 42L59 41M32 42L33 43L32 42z"/>
<path style="fill:#2c2c2c; stroke:none;" d="M44 42L45 43L44 42z"/>
<path style="fill:#626262; stroke:none;" d="M48 42L49 43L48 42M58 42L59 43L58 42z"/>
<path style="fill:#2c2c2c; stroke:none;" d="M32 43L33 44L32 43z"/>
<path style="fill:#a5a5a5; stroke:none;" d="M46 43L47 44L46 43z"/>
<path style="fill:#626262; stroke:none;" d="M47 43L48 44L47 43M57 43L58 44L57 43z"/>
<path style="fill:#a5a5a5; stroke:none;" d="M31.3333 44.6667L31.6667 45.3333L31.3333 44.6667z"/>
<path style="fill:#626262; stroke:none;" d="M56 44L57 45L56 44z"/>
<path style="fill:#2c2c2c; stroke:none;" d="M55 45L56 46L55 45z"/>
<path style="fill:#626262; stroke:none;" d="M31 46L32 47L31 46z"/>
<path style="fill:#2c2c2c; stroke:none;" d="M54 46L55 47L54 46M53 47L54 48L53 47z"/>
<path style="fill:#626262; stroke:none;" d="M30 48L31 49L30 48z"/>
<path style="fill:#a5a5a5; stroke:none;" d="M53 48L54 49L53 48M29 49L30 50L29 49z"/>
<path style="fill:#626262; stroke:none;" d="M52 49L53 50L52 49z"/>
<path style="fill:#a5a5a5; stroke:none;" d="M27 50L28 51L27 50z"/>
<path style="fill:#626262; stroke:none;" d="M28 50L29 51L28 50z"/>
<path style="fill:#a5a5a5; stroke:none;" d="M20.6667 51.3333L21.3333 51.6667L20.6667 51.3333z"/>
<path style="fill:#626262; stroke:none;" d="M22.6667 51.3333L23.3333 51.6667L22.6667 51.3333z"/>
<path style="fill:#2c2c2c; stroke:none;" d="M24 51L25 52L24 51M53 51L54 52L53 51z"/>
<path style="fill:#626262; stroke:none;" d="M17 52L18 53L17 52z"/>
<path style="fill:#2c2c2c; stroke:none;" d="M18 52L19 53L18 52M36 52L37 53L36 52z"/>
<path style="fill:#a5a5a5; stroke:none;" d="M37 52L37 53L41 53L37 52z"/>
<path style="fill:#626262; stroke:none;" d="M54 52L55 53L54 52M15 53L16 54L15 53M35 53L34 55L35 53z"/>
<path style="fill:#ffffff; stroke:none;" d="M36.4375 54.0324C32.4237 56.7799 36.5435 63.1437 40.7184 60.9136C45.8426 58.1763 41.2575 50.7331 36.4375 54.0324z"/>
<path style="fill:#2c2c2c; stroke:none;" d="M42 53L43 54L42 53z"/>
<path style="fill:#a5a5a5; stroke:none;" d="M13 54L14 55L13 54z"/>
<path style="fill:#2c2c2c; stroke:none;" d="M43 54L44 55L43 54z"/>
<path style="fill:#626262; stroke:none;" d="M55 54L56 55L55 54M12 55L13 56L12 55z"/>
<path style="fill:#a5a5a5; stroke:none;" d="M34 55L35 56L34 55M43 55L44 56L43 55M11 56L12 57L11 56M56 56L57 57L56 56M10 57L11 58L10 57M43.3333 57.6667L43.6667 58.3333L43.3333 57.6667z"/>
<path style="fill:#626262; stroke:none;" d="M56 57L56 60L57 60L56 57z"/>
<path style="fill:#2c2c2c; stroke:none;" d="M9 59L10 60L9 59z"/>
<path style="fill:#a5a5a5; stroke:none;" d="M34 59L35 60L34 59z"/>
<path style="fill:#2c2c2c; stroke:none;" d="M43 59L44 60L43 59z"/>
<path style="fill:#a5a5a5; stroke:none;" d="M8 60L9 61L8 60M28 60L26 63L28 60z"/>
<path style="fill:#626262; stroke:none;" d="M29 60L36 67L29 60z"/>
<path style="fill:#a5a5a5; stroke:none;" d="M35 60L36 61L35 60M42 60L43 61L42 60M56 60L57 61L56 60z"/>
<path style="fill:#626262; stroke:none;" d="M8 61L9 62L8 61z"/>
<path style="fill:#ffffff; stroke:none;" d="M28 61L27 62L34 69L35 68L28 61z"/>
<path style="fill:#626262; stroke:none;" d="M36 61L37 62L36 61M41 61L42 62L41 61M55 61L56 62L55 61z"/>
<path style="fill:#2c2c2c; stroke:none;" d="M8 62L9 63L8 62M38.6667 62.3333L39.3333 62.6667L38.6667 62.3333M54 62L55 63L54 62z"/>
<path style="fill:#a5a5a5; stroke:none;" d="M7 63L7 67L8 67L7 63z"/>
<path style="fill:#2c2c2c; stroke:none;" d="M26 63L27 64L26 63z"/>
<path style="fill:#a5a5a5; stroke:none;" d="M53 63L54 64L53 63z"/>
<path style="fill:#2c2c2c; stroke:none;" d="M27 64L28 65L27 64z"/>
<path style="fill:#626262; stroke:none;" d="M50 64L51 65L50 64z"/>
<path style="fill:#a5a5a5; stroke:none;" d="M51 64L52 65L51 64z"/>
<path style="fill:#2c2c2c; stroke:none;" d="M28 65L29 66L28 65M47 65L48 66L47 65z"/>
<path style="fill:#a5a5a5; stroke:none;" d="M48 65L49 66L48 65z"/>
<path style="fill:#2c2c2c; stroke:none;" d="M29 66L30 67L29 66z"/>
<path style="fill:#626262; stroke:none;" d="M46 66L47 67L46 66z"/>
<path style="fill:#2c2c2c; stroke:none;" d="M30 67L31 68L30 67z"/>
<path style="fill:#a5a5a5; stroke:none;" d="M35 67L36 68L35 67z"/>
<path style="fill:#2c2c2c; stroke:none;" d="M45 67L46 68L45 67M31 68L32 69L31 68z"/>
<path style="fill:#a5a5a5; stroke:none;" d="M34 68L35 69L34 68z"/>
<path style="fill:#626262; stroke:none;" d="M45 68L46 69L45 68M8 69L9 70L8 69z"/>
<path style="fill:#2c2c2c; stroke:none;" d="M32 69L33 70L32 69z"/>
<path style="fill:#626262; stroke:none;" d="M33 69L34 70L33 69z"/>
<path style="fill:#a5a5a5; stroke:none;" d="M45 69L46 70L45 69M8 70L9 71L8 70z"/>
<path style="fill:#2c2c2c; stroke:none;" d="M9 71L10 72L9 71z"/>
<path style="fill:#626262; stroke:none;" d="M9 72L10 73L9 72z"/>
<path style="fill:#2c2c2c; stroke:none;" d="M44.3333 72.6667L44.6667 73.3333L44.3333 72.6667z"/>
<path style="fill:#a5a5a5; stroke:none;" d="M10 74L11 75L10 74z"/>
<path style="fill:#626262; stroke:none;" d="M44 74L45 75L44 74M11 75L12 76L11 75z"/>
<path style="fill:#a5a5a5; stroke:none;" d="M44.3333 75.6667L44.6667 76.3333L44.3333 75.6667M12 77L13 78L12 77M13 78L14 79L13 78z"/>
<path style="fill:#626262; stroke:none;" d="M43 78L44 79L43 78z"/>
<path style="fill:#a5a5a5; stroke:none;" d="M14 79L15 80L14 79M43 79L44 80L43 79z"/>
<path style="fill:#626262; stroke:none;" d="M15 80L16 81L15 80z"/>
<path style="fill:#2c2c2c; stroke:none;" d="M42 80L43 81L42 80z"/>
<path style="fill:#626262; stroke:none;" d="M16 81L17 82L16 81z"/>
<path style="fill:#a5a5a5; stroke:none;" d="M42 81L43 82L42 81M17 82L18 83L17 82z"/>
<path style="fill:#626262; stroke:none;" d="M41 82L42 83L41 82z"/>
<path style="fill:#a5a5a5; stroke:none;" d="M18 83L19 84L18 83z"/>
<path style="fill:#626262; stroke:none;" d="M40 83L41 84L40 83M20 84L21 85L20 84z"/>
<path style="fill:#2c2c2c; stroke:none;" d="M39 84L40 85L39 84z"/>
<path style="fill:#a5a5a5; stroke:none;" d="M21 85L22 86L21 85z"/>
<path style="fill:#626262; stroke:none;" d="M38 85L39 86L38 85z"/>
<path style="fill:#a5a5a5; stroke:none;" d="M23 86L24 87L23 86M37 86L38 87L37 86M25 87L26 88L25 87z"/>
<path style="fill:#2c2c2c; stroke:none;" d="M26 87L27 88L26 87M34 87L35 88L34 87z"/>
<path style="fill:#a5a5a5; stroke:none;" d="M35 87L36 88L35 87M28 88L28 89L33 89L28 88z"/>
</svg>
